SplineFontDB: 3.2
FontName: Supersprintst-Regular
FullName: Supersprintst Regular
FamilyName: Supersprintst
Weight: Book
Version: 001.004
ItalicAngle: 0
UnderlinePosition: -100
UnderlineWidth: 50
Ascent: 800
Descent: 200
InvalidEm: 0
sfntRevision: 0x00010000
LayerCount: 2
Layer: 0 1 "Back" 1
Layer: 1 1 "Fore" 0
XUID: [1021 702 1384521059 13646458]
StyleMap: 0x0040
FSType: 0
OS2Version: 4
OS2_WeightWidthSlopeOnly: 0
OS2_UseTypoMetrics: 0
CreationTime: 1618069958
ModificationTime: 1621886287
PfmFamily: 17
TTFWeight: 400
TTFWidth: 5
LineGap: 90
VLineGap: 0
Panose: 2 0 5 3 0 0 0 0 0 0
OS2TypoAscent: 800
OS2TypoAOffset: 0
OS2TypoDescent: -200
OS2TypoDOffset: 0
OS2TypoLinegap: 90
OS2WinAscent: 666
OS2WinAOffset: 0
OS2WinDescent: 200
OS2WinDOffset: 0
HheadAscent: 666
HheadAOffset: 0
HheadDescent: -200
HheadDOffset: 0
OS2SubXSize: 650
OS2SubYSize: 700
OS2SubXOff: 0
OS2SubYOff: 140
OS2SupXSize: 650
OS2SupYSize: 700
OS2SupXOff: 0
OS2SupYOff: 480
OS2StrikeYSize: 49
OS2StrikeYPos: 258
OS2CapHeight: 578
OS2XHeight: 582
OS2Vendor: 'CLGR'
OS2CodePages: 00000001.00000000
OS2UnicodeRanges: 00000003.00000000.00000000.00000000
DEI: 91125
TtTable: prep
PUSHW_1
 511
SCANCTRL
PUSHB_1
 4
SCANTYPE
EndTTInstrs
ShortTable: cvt  2
  33
  633
EndShort
ShortTable: maxp 16
  1
  0
  44
  33
  3
  0
  0
  2
  0
  1
  1
  0
  64
  0
  0
  0
EndShort
LangName: 1033 "" "" "" "Calligraphr : Supersprintst Regular : 10-04-2021" "" "Version 001.004" "" "" "" "" "Created with Calligraphr.com" "" "" "" "" "" "Supersprintst" "Regular"
GaspTable: 1 65535 15 1
Encoding: UnicodeBmp
UnicodeInterp: none
NameList: AGL For New Fonts
DisplaySize: -48
AntiAlias: 1
FitToEm: 0
WinInfo: 0 30 9
BeginChars: 65538 45

StartChar: .notdef
Encoding: 65536 -1 0
Width: 364
Flags: W
LayerCount: 2
Fore
SplineSet
33 0 m 1,0,-1
 33 666 l 1,1,-1
 298 666 l 1,2,-1
 298 0 l 1,3,-1
 33 0 l 1,0,-1
66 33 m 1,4,-1
 265 33 l 1,5,-1
 265 633 l 1,6,-1
 66 633 l 1,7,-1
 66 33 l 1,4,-1
EndSplineSet
Validated: 1
EndChar

StartChar: period
Encoding: 46 46 5
Width: 870
GlyphClass: 2
Flags: W
LayerCount: 2
Fore
SplineSet
202.005050634 -190.994949366 m 1,0,-1
 202.005050634 274.994949366 l 1,1,-1
 667.994949366 274.994949366 l 1,2,-1
 667.994949366 -190.994949366 l 1,3,-1
 202.005050634 -190.994949366 l 1,0,-1
315.142135624 161.857864376 m 1,4,-1
 315.142135624 -77.8578643763 l 1,5,-1
 554.857864376 -77.8578643763 l 1,6,-1
 554.857864376 161.857864376 l 1,7,-1
 315.142135624 161.857864376 l 1,4,-1
286.857864376 190.142135624 m 1,8,-1
 583.142135624 190.142135624 l 1,9,-1
 583.142135624 -106.142135624 l 1,10,-1
 286.857864376 -106.142135624 l 1,11,-1
 286.857864376 190.142135624 l 1,8,-1
470.005050634 77.0050506339 m 1,12,-1
 399.994949366 77.0050506339 l 1,13,-1
 399.994949366 6.99494936612 l 1,14,-1
 470.005050634 6.99494936612 l 1,15,-1
 470.005050634 77.0050506339 l 1,12,-1
EndSplineSet
Validated: 526345
EndChar

StartChar: zero
Encoding: 48 48 6
Width: 870
GlyphClass: 2
Flags: W
LayerCount: 2
Fore
SplineSet
600.994949366 -56.9949493661 m 1,0,-1
 269.005050634 -56.9949493661 l 1,1,-1
 269.005050634 542.994949366 l 1,2,-1
 600.994949366 542.994949366 l 1,3,-1
 600.994949366 -56.9949493661 l 1,0,-1
487.857864376 429.857864376 m 1,4,-1
 382.142135624 429.857864376 l 1,5,-1
 382.142135624 56.1421356237 l 1,6,-1
 487.857864376 56.1421356237 l 1,7,-1
 487.857864376 429.857864376 l 1,4,-1
353.857864376 27.8578643763 m 1,8,-1
 353.857864376 458.142135624 l 1,9,-1
 516.142135624 458.142135624 l 1,10,-1
 516.142135624 27.8578643763 l 1,11,-1
 353.857864376 27.8578643763 l 1,8,-1
734.994949366 -56.9949493661 m 1,12,-1
 734.994949366 -190.994949366 l 1,13,-1
 135.005050634 -190.994949366 l 1,14,-1
 135.005050634 -56.9949493661 l 1,15,-1
 1.00505063388 -56.9949493661 l 1,16,-1
 1.00505063388 542.994949366 l 1,17,-1
 135.005050634 542.994949366 l 1,18,-1
 135.005050634 676.994949366 l 1,19,-1
 734.994949366 676.994949366 l 1,20,-1
 734.994949366 542.994949366 l 1,21,-1
 868.994949366 542.994949366 l 1,22,-1
 868.994949366 -56.9949493661 l 1,23,-1
 734.994949366 -56.9949493661 l 1,12,-1
248.142135624 56.1421356237 m 1,24,-1
 248.142135624 -77.8578643763 l 1,25,-1
 621.857864376 -77.8578643763 l 1,26,-1
 621.857864376 56.1421356237 l 1,27,-1
 755.857864376 56.1421356237 l 1,28,-1
 755.857864376 429.857864376 l 1,29,-1
 621.857864376 429.857864376 l 1,30,-1
 621.857864376 563.857864376 l 1,31,-1
 248.142135624 563.857864376 l 1,32,-1
 248.142135624 429.857864376 l 1,33,-1
 114.142135624 429.857864376 l 1,34,-1
 114.142135624 56.1421356237 l 1,35,-1
 248.142135624 56.1421356237 l 1,24,-1
219.857864376 27.8578643763 m 1,36,-1
 85.8578643763 27.8578643763 l 1,37,-1
 85.8578643763 458.142135624 l 1,38,-1
 219.857864376 458.142135624 l 1,39,-1
 219.857864376 592.142135624 l 1,40,-1
 650.142135624 592.142135624 l 1,41,-1
 650.142135624 458.142135624 l 1,42,-1
 784.142135624 458.142135624 l 1,43,-1
 784.142135624 27.8578643763 l 1,44,-1
 650.142135624 27.8578643763 l 1,45,-1
 650.142135624 -106.142135624 l 1,46,-1
 219.857864376 -106.142135624 l 1,47,-1
 219.857864376 27.8578643763 l 1,36,-1
332.994949366 345.005050634 m 1,48,-1
 198.994949366 345.005050634 l 1,49,-1
 198.994949366 140.994949366 l 1,50,-1
 332.994949366 140.994949366 l 1,51,-1
 332.994949366 6.99494936612 l 1,52,-1
 537.005050634 6.99494936612 l 1,53,-1
 537.005050634 140.994949366 l 1,54,-1
 671.005050634 140.994949366 l 1,55,-1
 671.005050634 345.005050634 l 1,56,-1
 537.005050634 345.005050634 l 1,57,-1
 537.005050634 479.005050634 l 1,58,-1
 332.994949366 479.005050634 l 1,59,-1
 332.994949366 345.005050634 l 1,48,-1
EndSplineSet
Validated: 527365
EndChar

StartChar: one
Encoding: 49 49 7
Width: 870
GlyphClass: 2
Flags: W
LayerCount: 2
Fore
SplineSet
269.005050634 542.994949366 m 1,0,-1
 269.005050634 676.994949366 l 1,1,-1
 734.994949366 676.994949366 l 1,2,-1
 734.994949366 -190.994949366 l 1,3,-1
 269.005050634 -190.994949366 l 1,4,-1
 269.005050634 211.005050634 l 1,5,-1
 135.005050634 211.005050634 l 1,6,-1
 135.005050634 542.994949366 l 1,7,-1
 269.005050634 542.994949366 l 1,0,-1
382.142135624 324.142135624 m 1,8,-1
 382.142135624 -77.8578643763 l 1,9,-1
 621.857864376 -77.8578643763 l 1,10,-1
 621.857864376 563.857864376 l 1,11,-1
 382.142135624 563.857864376 l 1,12,-1
 382.142135624 429.857864376 l 1,13,-1
 248.142135624 429.857864376 l 1,14,-1
 248.142135624 324.142135624 l 1,15,-1
 382.142135624 324.142135624 l 1,8,-1
353.857864376 295.857864376 m 1,16,-1
 219.857864376 295.857864376 l 1,17,-1
 219.857864376 458.142135624 l 1,18,-1
 353.857864376 458.142135624 l 1,19,-1
 353.857864376 592.142135624 l 1,20,-1
 650.142135624 592.142135624 l 1,21,-1
 650.142135624 -106.142135624 l 1,22,-1
 353.857864376 -106.142135624 l 1,23,-1
 353.857864376 295.857864376 l 1,16,-1
466.994949366 479.005050634 m 1,24,-1
 466.994949366 6.99494936612 l 1,25,-1
 537.005050634 6.99494936612 l 1,26,-1
 537.005050634 479.005050634 l 1,27,-1
 466.994949366 479.005050634 l 1,24,-1
EndSplineSet
Validated: 526345
EndChar

StartChar: two
Encoding: 50 50 8
Width: 870
GlyphClass: 2
Flags: W
LayerCount: 2
Fore
SplineSet
1.00505063388 345.005050634 m 1,0,-1
 1.00505063388 676.994949366 l 1,1,-1
 734.994949366 676.994949366 l 1,2,-1
 734.994949366 542.994949366 l 1,3,-1
 868.994949366 542.994949366 l 1,4,-1
 868.994949366 211.005050634 l 1,5,-1
 734.994949366 211.005050634 l 1,6,-1
 734.994949366 140.994949366 l 1,7,-1
 868.994949366 140.994949366 l 1,8,-1
 868.994949366 -190.994949366 l 1,9,-1
 1.00505063388 -190.994949366 l 1,10,-1
 1.00505063388 274.994949366 l 1,11,-1
 135.005050634 274.994949366 l 1,12,-1
 135.005050634 345.005050634 l 1,13,-1
 1.00505063388 345.005050634 l 1,0,-1
114.142135624 563.857864376 m 1,14,-1
 114.142135624 458.142135624 l 1,15,-1
 516.142135624 458.142135624 l 1,16,-1
 516.142135624 295.857864376 l 1,17,-1
 248.142135624 295.857864376 l 1,18,-1
 248.142135624 161.857864376 l 1,19,-1
 114.142135624 161.857864376 l 1,20,-1
 114.142135624 -77.8578643763 l 1,21,-1
 755.857864376 -77.8578643763 l 1,22,-1
 755.857864376 27.8578643763 l 1,23,-1
 353.857864376 27.8578643763 l 1,24,-1
 353.857864376 190.142135624 l 1,25,-1
 621.857864376 190.142135624 l 1,26,-1
 621.857864376 324.142135624 l 1,27,-1
 755.857864376 324.142135624 l 1,28,-1
 755.857864376 429.857864376 l 1,29,-1
 621.857864376 429.857864376 l 1,30,-1
 621.857864376 563.857864376 l 1,31,-1
 114.142135624 563.857864376 l 1,14,-1
487.857864376 324.142135624 m 1,32,-1
 487.857864376 429.857864376 l 1,33,-1
 85.8578643763 429.857864376 l 1,34,-1
 85.8578643763 592.142135624 l 1,35,-1
 650.142135624 592.142135624 l 1,36,-1
 650.142135624 458.142135624 l 1,37,-1
 784.142135624 458.142135624 l 1,38,-1
 784.142135624 295.857864376 l 1,39,-1
 650.142135624 295.857864376 l 1,40,-1
 650.142135624 161.857864376 l 1,41,-1
 382.142135624 161.857864376 l 1,42,-1
 382.142135624 56.1421356237 l 1,43,-1
 784.142135624 56.1421356237 l 1,44,-1
 784.142135624 -106.142135624 l 1,45,-1
 85.8578643763 -106.142135624 l 1,46,-1
 85.8578643763 190.142135624 l 1,47,-1
 219.857864376 190.142135624 l 1,48,-1
 219.857864376 324.142135624 l 1,49,-1
 487.857864376 324.142135624 l 1,32,-1
269.005050634 77.0050506339 m 1,50,-1
 198.994949366 77.0050506339 l 1,51,-1
 198.994949366 6.99494936612 l 1,52,-1
 269.005050634 6.99494936612 l 1,53,-1
 269.005050634 77.0050506339 l 1,50,-1
EndSplineSet
Validated: 527369
EndChar

StartChar: three
Encoding: 51 51 9
Width: 870
GlyphClass: 2
Flags: W
LayerCount: 2
Fore
SplineSet
868.994949366 47 m 1,0,-1
 868.994949366 -51.9949493661 l 1,1,-1
 734.994949366 -51.9949493661 l 1,2,-1
 734.994949366 -181.343298937 l 1,3,-1
 524 -186.994949366 l 2,4,5
 375 -190.568542495 375 -190.568542495 256 -190.994949366 c 2,6,-1
 1.00505063388 -190.994949366 l 1,7,-1
 1.00505063388 140.994949366 l 1,8,-1
 135.005050634 140.994949366 l 1,9,-1
 135.005050634 344.527514076 l 1,10,-1
 1.00505063388 342.527514076 l 1,11,-1
 1.00505063388 674.504093678 l 1,12,-1
 192 678.994949366 l 2,13,14
 223.517509728 680.162264541 223.517509728 680.162264541 460 680.994949366 c 1,15,-1
 734.994949366 684.119891973 l 1,16,-1
 734.994949366 546.495025891 l 1,17,-1
 866.994949366 544.495025891 l 1,18,-1
 866.994949366 447 l 1,19,-1
 868.994949366 47 l 1,0,-1
621.857864376 436.286413941 m 1,20,-1
 621.857864376 569.69715829 l 1,21,-1
 460 567.857864376 l 1,22,23
 223.517509728 567.025179551 223.517509728 567.025179551 192 565.857864376 c 2,24,-1
 114.142135624 564.165302107 l 1,25,-1
 114.142135624 457.353212275 l 1,26,-1
 301 460.142135624 l 1,27,-1
 516.142135624 465.493930042 l 1,28,-1
 516.142135624 303.228631977 l 1,29,30
 333.347594699 298.436265735 333.347594699 298.436265735 248.142135624 295.263110633 c 1,31,-1
 248.142135624 189.4587506 l 1,32,-1
 368 192.142135624 l 1,33,-1
 516.142135624 196.564288926 l 1,34,-1
 516.142135624 36.4708403991 l 1,35,-1
 459.573593129 31.8225796008 l 2,36,37
 411.323683886 27.8578643763 411.323683886 27.8578643763 259 27.8578643763 c 2,38,-1
 114.142135624 27.8578643763 l 1,39,-1
 114.142135624 -77.8578643763 l 1,40,-1
 256 -77.8578643763 l 2,41,42
 392.992843904 -77.3669846288 392.992843904 -77.3669846288 621.857864376 -71.2366715805 c 1,43,-1
 621.857864376 61.1421356237 l 1,44,-1
 755.787153698 61.1421356237 l 1,45,-1
 753.927508957 433.071083938 l 1,46,-1
 702 433.857864376 l 1,47,-1
 621.857864376 436.286413941 l 1,20,-1
85.8578643763 428.646787725 m 1,48,-1
 85.8578643763 591.834697893 l 1,49,-1
 192 594.142135624 l 2,50,51
 223.517509728 595.309450799 223.517509728 595.309450799 460 596.142135624 c 1,52,-1
 650.142135624 598.30284171 l 1,53,-1
 650.142135624 463.713586059 l 1,54,-1
 702 462.142135624 l 1,55,-1
 781.893109231 460.931633969 l 1,56,-1
 784.395114168 32.8578643762 l 1,57,-1
 650.142135624 32.8578643762 l 1,58,-1
 650.142135624 -98.7633284195 l 1,59,-1
 524 -102.142135624 l 2,60,61
 400 -106.142135624 400 -106.142135624 256 -106.142135624 c 2,62,-1
 85.8578643763 -106.142135624 l 1,63,-1
 85.8578643763 56.1421356237 l 1,64,-1
 259 56.1421356237 l 2,65,66
 412 56.1421356237 412 56.1421356237 460 60.1421356237 c 2,67,-1
 487.857864376 62.1319830792 l 1,68,-1
 487.857864376 167.435711074 l 1,69,-1
 368 163.857864376 l 1,70,-1
 219.857864376 160.5412494 l 1,71,-1
 219.857864376 323.22388422 l 1,72,-1
 487.857864376 330.680517289 l 1,73,-1
 487.857864376 436.506069958 l 1,74,-1
 301 431.857864376 l 1,75,-1
 85.8578643763 428.646787725 l 1,48,-1
600.994949366 352.065809744 m 1,76,-1
 600.994949366 145.994949366 l 1,77,-1
 670.589398196 145.994921878 l 1,78,-1
 669.401843626 349.992873554 l 1,79,-1
 600.994949366 352.065809744 l 1,76,-1
EndSplineSet
Validated: 527369
EndChar

StartChar: four
Encoding: 52 52 10
Width: 870
GlyphClass: 2
Flags: W
LayerCount: 2
Fore
SplineSet
1.00505063388 82.0050506339 m 1,0,-1
 1.00505063388 682.994949366 l 1,1,-1
 868.994949366 682.994949366 l 1,2,-1
 868.994949366 -185.994949366 l 1,3,-1
 403.005050634 -185.994949366 l 1,4,-1
 403.005050634 82.0050506339 l 1,5,-1
 1.00505063388 82.0050506339 l 1,0,-1
114.142135624 569.857864376 m 1,6,-1
 114.142135624 195.142135624 l 1,7,-1
 516.142135624 195.142135624 l 1,8,-1
 516.142135624 -72.8578643763 l 1,9,-1
 755.857864376 -72.8578643763 l 1,10,-1
 755.857864376 569.857864376 l 1,11,-1
 516.142135624 569.857864376 l 1,12,-1
 516.142135624 300.857864376 l 1,13,-1
 353.857864376 300.857864376 l 1,14,-1
 353.857864376 569.857864376 l 1,15,-1
 114.142135624 569.857864376 l 1,6,-1
85.8578643763 598.142135624 m 1,16,-1
 382.142135624 598.142135624 l 1,17,-1
 382.142135624 329.142135624 l 1,18,-1
 487.857864376 329.142135624 l 1,19,-1
 487.857864376 598.142135624 l 1,20,-1
 784.142135624 598.142135624 l 1,21,-1
 784.142135624 -101.142135624 l 1,22,-1
 487.857864376 -101.142135624 l 1,23,-1
 487.857864376 166.857864376 l 1,24,-1
 85.8578643763 166.857864376 l 1,25,-1
 85.8578643763 598.142135624 l 1,16,-1
269.005050634 485.005050634 m 1,26,-1
 198.994949366 485.005050634 l 1,27,-1
 198.994949366 279.994949366 l 1,28,-1
 269.005050634 279.994949366 l 1,29,-1
 269.005050634 485.005050634 l 1,26,-1
600.994949366 485.005050634 m 1,30,-1
 600.994949366 11.9949493661 l 1,31,-1
 671.005050634 11.9949493661 l 1,32,-1
 671.005050634 485.005050634 l 1,33,-1
 600.994949366 485.005050634 l 1,30,-1
EndSplineSet
Validated: 527369
EndChar

StartChar: five
Encoding: 53 53 11
Width: 870
GlyphClass: 2
Flags: W
LayerCount: 2
Fore
SplineSet
1.00505063388 -190.994949366 m 1,0,-1
 1.00505063388 676.994949366 l 1,1,-1
 868.994949366 676.994949366 l 1,2,-1
 868.994949366 345.005050634 l 1,3,-1
 734.994949366 345.005050634 l 1,4,-1
 734.994949366 274.994949366 l 1,5,-1
 868.994949366 274.994949366 l 1,6,-1
 868.994949366 -56.9949493661 l 1,7,-1
 734.994949366 -56.9949493661 l 1,8,-1
 734.994949366 -190.994949366 l 1,9,-1
 1.00505063388 -190.994949366 l 1,0,-1
114.142135624 563.857864376 m 1,10,-1
 114.142135624 190.142135624 l 1,11,-1
 382.142135624 190.142135624 l 1,12,-1
 382.142135624 27.8578643763 l 1,13,-1
 114.142135624 27.8578643763 l 1,14,-1
 114.142135624 -77.8578643763 l 1,15,-1
 621.857864376 -77.8578643763 l 1,16,-1
 621.857864376 56.1421356237 l 1,17,-1
 755.857864376 56.1421356237 l 1,18,-1
 755.857864376 161.857864376 l 1,19,-1
 621.857864376 161.857864376 l 1,20,-1
 621.857864376 295.857864376 l 1,21,-1
 353.857864376 295.857864376 l 1,22,-1
 353.857864376 458.142135624 l 1,23,-1
 755.857864376 458.142135624 l 1,24,-1
 755.857864376 563.857864376 l 1,25,-1
 114.142135624 563.857864376 l 1,10,-1
85.8578643763 592.142135624 m 1,26,-1
 784.142135624 592.142135624 l 1,27,-1
 784.142135624 429.857864376 l 1,28,-1
 382.142135624 429.857864376 l 1,29,-1
 382.142135624 324.142135624 l 1,30,-1
 650.142135624 324.142135624 l 1,31,-1
 650.142135624 190.142135624 l 1,32,-1
 784.142135624 190.142135624 l 1,33,-1
 784.142135624 27.8578643763 l 1,34,-1
 650.142135624 27.8578643763 l 1,35,-1
 650.142135624 -106.142135624 l 1,36,-1
 85.8578643763 -106.142135624 l 1,37,-1
 85.8578643763 56.1421356237 l 1,38,-1
 353.857864376 56.1421356237 l 1,39,-1
 353.857864376 161.857864376 l 1,40,-1
 85.8578643763 161.857864376 l 1,41,-1
 85.8578643763 592.142135624 l 1,26,-1
269.005050634 479.005050634 m 1,42,-1
 198.994949366 479.005050634 l 1,43,-1
 198.994949366 274.994949366 l 1,44,-1
 269.005050634 274.994949366 l 1,45,-1
 269.005050634 479.005050634 l 1,42,-1
537.005050634 211.005050634 m 1,46,-1
 466.994949366 211.005050634 l 1,47,-1
 466.994949366 6.99494936612 l 1,48,-1
 537.005050634 6.99494936612 l 1,49,-1
 537.005050634 211.005050634 l 1,46,-1
EndSplineSet
Validated: 527369
EndChar

StartChar: six
Encoding: 54 54 12
Width: 870
GlyphClass: 2
Flags: W
LayerCount: 2
Fore
SplineSet
600.994949366 -56.9949493661 m 1,0,-1
 269.005050634 -56.9949493661 l 1,1,-1
 269.005050634 274.994949366 l 1,2,-1
 600.994949366 274.994949366 l 1,3,-1
 600.994949366 -56.9949493661 l 1,0,-1
487.857864376 161.857864376 m 1,4,-1
 382.142135624 161.857864376 l 1,5,-1
 382.142135624 56.1421356237 l 1,6,-1
 487.857864376 56.1421356237 l 1,7,-1
 487.857864376 161.857864376 l 1,4,-1
353.857864376 27.8578643763 m 1,8,-1
 353.857864376 190.142135624 l 1,9,-1
 516.142135624 190.142135624 l 1,10,-1
 516.142135624 27.8578643763 l 1,11,-1
 353.857864376 27.8578643763 l 1,8,-1
435 101.578643763 m 1,12,-1
 442.421356237 109 l 1,13,-1
 435 116.421356237 l 1,14,-1
 427.578643763 109 l 1,15,-1
 435 101.578643763 l 1,12,-1
734.994949366 -56.9949493661 m 1,16,-1
 734.994949366 -190.994949366 l 1,17,-1
 135.005050634 -190.994949366 l 1,18,-1
 135.005050634 -56.9949493661 l 1,19,-1
 1.00505063388 -56.9949493661 l 1,20,-1
 1.00505063388 542.994949366 l 1,21,-1
 135.005050634 542.994949366 l 1,22,-1
 135.005050634 676.994949366 l 1,23,-1
 734.994949366 676.994949366 l 1,24,-1
 734.994949366 274.994949366 l 1,25,-1
 868.994949366 274.994949366 l 1,26,-1
 868.994949366 -56.9949493661 l 1,27,-1
 734.994949366 -56.9949493661 l 1,16,-1
248.142135624 56.1421356237 m 1,28,-1
 248.142135624 -77.8578643763 l 1,29,-1
 621.857864376 -77.8578643763 l 1,30,-1
 621.857864376 56.1421356237 l 1,31,-1
 755.857864376 56.1421356237 l 1,32,-1
 755.857864376 161.857864376 l 1,33,-1
 621.857864376 161.857864376 l 1,34,-1
 621.857864376 295.857864376 l 1,35,-1
 353.857864376 295.857864376 l 1,36,-1
 353.857864376 458.142135624 l 1,37,-1
 621.857864376 458.142135624 l 1,38,-1
 621.857864376 563.857864376 l 1,39,-1
 248.142135624 563.857864376 l 1,40,-1
 248.142135624 429.857864376 l 1,41,-1
 114.142135624 429.857864376 l 1,42,-1
 114.142135624 56.1421356237 l 1,43,-1
 248.142135624 56.1421356237 l 1,28,-1
219.857864376 27.8578643763 m 1,44,-1
 85.8578643763 27.8578643763 l 1,45,-1
 85.8578643763 458.142135624 l 1,46,-1
 219.857864376 458.142135624 l 1,47,-1
 219.857864376 592.142135624 l 1,48,-1
 650.142135624 592.142135624 l 1,49,-1
 650.142135624 429.857864376 l 1,50,-1
 382.142135624 429.857864376 l 1,51,-1
 382.142135624 324.142135624 l 1,52,-1
 650.142135624 324.142135624 l 1,53,-1
 650.142135624 190.142135624 l 1,54,-1
 784.142135624 190.142135624 l 1,55,-1
 784.142135624 27.8578643763 l 1,56,-1
 650.142135624 27.8578643763 l 1,57,-1
 650.142135624 -106.142135624 l 1,58,-1
 219.857864376 -106.142135624 l 1,59,-1
 219.857864376 27.8578643763 l 1,44,-1
537.005050634 211.005050634 m 1,60,-1
 269.005050634 211.005050634 l 1,61,-1
 269.005050634 345.005050634 l 1,62,-1
 198.994949366 345.005050634 l 1,63,-1
 198.994949366 140.994949366 l 1,64,-1
 332.994949366 140.994949366 l 1,65,-1
 332.994949366 6.99494936612 l 1,66,-1
 537.005050634 6.99494936612 l 1,67,-1
 537.005050634 211.005050634 l 1,60,-1
EndSplineSet
Validated: 527365
EndChar

StartChar: seven
Encoding: 55 55 13
Width: 870
GlyphClass: 2
Flags: W
LayerCount: 2
Fore
SplineSet
1.00505063388 345.005050634 m 1,0,-1
 1.00505063388 676.994949366 l 1,1,-1
 868.994949366 676.994949366 l 1,2,-1
 868.994949366 211.005050634 l 1,3,-1
 734.994949366 211.005050634 l 1,4,-1
 734.994949366 77.0050506339 l 1,5,-1
 600.994949366 77.0050506339 l 1,6,-1
 600.994949366 -190.994949366 l 1,7,-1
 135.005050634 -190.994949366 l 1,8,-1
 135.005050634 274.994949366 l 1,9,-1
 269.005050634 274.994949366 l 1,10,-1
 269.005050634 345.005050634 l 1,11,-1
 1.00505063388 345.005050634 l 1,0,-1
114.142135624 563.857864376 m 1,12,-1
 114.142135624 458.142135624 l 1,13,-1
 516.142135624 458.142135624 l 1,14,-1
 516.142135624 295.857864376 l 1,15,-1
 382.142135624 295.857864376 l 1,16,-1
 382.142135624 161.857864376 l 1,17,-1
 248.142135624 161.857864376 l 1,18,-1
 248.142135624 -77.8578643763 l 1,19,-1
 487.857864376 -77.8578643763 l 1,20,-1
 487.857864376 190.142135624 l 1,21,-1
 621.857864376 190.142135624 l 1,22,-1
 621.857864376 324.142135624 l 1,23,-1
 755.857864376 324.142135624 l 1,24,-1
 755.857864376 563.857864376 l 1,25,-1
 114.142135624 563.857864376 l 1,12,-1
85.8578643763 592.142135624 m 1,26,-1
 784.142135624 592.142135624 l 1,27,-1
 784.142135624 295.857864376 l 1,28,-1
 650.142135624 295.857864376 l 1,29,-1
 650.142135624 161.857864376 l 1,30,-1
 516.142135624 161.857864376 l 1,31,-1
 516.142135624 -106.142135624 l 1,32,-1
 219.857864376 -106.142135624 l 1,33,-1
 219.857864376 190.142135624 l 1,34,-1
 353.857864376 190.142135624 l 1,35,-1
 353.857864376 324.142135624 l 1,36,-1
 487.857864376 324.142135624 l 1,37,-1
 487.857864376 429.857864376 l 1,38,-1
 85.8578643763 429.857864376 l 1,39,-1
 85.8578643763 592.142135624 l 1,26,-1
671.005050634 479.005050634 m 1,40,-1
 600.994949366 479.005050634 l 1,41,-1
 600.994949366 408.994949366 l 1,42,-1
 671.005050634 408.994949366 l 1,43,-1
 671.005050634 479.005050634 l 1,40,-1
403.005050634 77.0050506339 m 1,44,-1
 332.994949366 77.0050506339 l 1,45,-1
 332.994949366 6.99494936612 l 1,46,-1
 403.005050634 6.99494936612 l 1,47,-1
 403.005050634 77.0050506339 l 1,44,-1
EndSplineSet
Validated: 527369
EndChar

StartChar: eight
Encoding: 56 56 14
Width: 870
GlyphClass: 2
Flags: W
LayerCount: 2
Fore
SplineSet
600.994949366 -56.9949493661 m 1,0,-1
 269.005050634 -56.9949493661 l 1,1,-1
 269.005050634 274.994949366 l 1,2,-1
 600.994949366 274.994949366 l 1,3,-1
 600.994949366 -56.9949493661 l 1,0,-1
487.857864376 161.857864376 m 1,4,-1
 382.142135624 161.857864376 l 1,5,-1
 382.142135624 56.1421356237 l 1,6,-1
 487.857864376 56.1421356237 l 1,7,-1
 487.857864376 161.857864376 l 1,4,-1
353.857864376 27.8578643763 m 1,8,-1
 353.857864376 190.142135624 l 1,9,-1
 516.142135624 190.142135624 l 1,10,-1
 516.142135624 27.8578643763 l 1,11,-1
 353.857864376 27.8578643763 l 1,8,-1
435 101.578643763 m 1,12,-1
 442.421356237 109 l 1,13,-1
 435 116.421356237 l 1,14,-1
 427.578643763 109 l 1,15,-1
 435 101.578643763 l 1,12,-1
600.994949366 211.005050634 m 1,16,-1
 269.005050634 211.005050634 l 1,17,-1
 269.005050634 542.994949366 l 1,18,-1
 600.994949366 542.994949366 l 1,19,-1
 600.994949366 211.005050634 l 1,16,-1
382.142135624 324.142135624 m 1,20,-1
 487.857864376 324.142135624 l 1,21,-1
 487.857864376 429.857864376 l 1,22,-1
 382.142135624 429.857864376 l 1,23,-1
 382.142135624 324.142135624 l 1,20,-1
353.857864376 295.857864376 m 1,24,-1
 353.857864376 458.142135624 l 1,25,-1
 516.142135624 458.142135624 l 1,26,-1
 516.142135624 295.857864376 l 1,27,-1
 353.857864376 295.857864376 l 1,24,-1
435 369.578643763 m 1,28,-1
 442.421356237 377 l 1,29,-1
 435 384.421356237 l 1,30,-1
 427.578643763 377 l 1,31,-1
 435 369.578643763 l 1,28,-1
135.005050634 -56.9949493661 m 1,32,-1
 1.00505063388 -56.9949493661 l 1,33,-1
 1.00505063388 542.994949366 l 1,34,-1
 135.005050634 542.994949366 l 1,35,-1
 135.005050634 676.994949366 l 1,36,-1
 734.994949366 676.994949366 l 1,37,-1
 734.994949366 542.994949366 l 1,38,-1
 868.994949366 542.994949366 l 1,39,-1
 868.994949366 -56.9949493661 l 1,40,-1
 734.994949366 -56.9949493661 l 1,41,-1
 734.994949366 -190.994949366 l 1,42,-1
 135.005050634 -190.994949366 l 1,43,-1
 135.005050634 -56.9949493661 l 1,32,-1
248.142135624 324.142135624 m 1,44,-1
 248.142135624 161.857864376 l 1,45,-1
 114.142135624 161.857864376 l 1,46,-1
 114.142135624 56.1421356237 l 1,47,-1
 248.142135624 56.1421356237 l 1,48,-1
 248.142135624 -77.8578643763 l 1,49,-1
 621.857864376 -77.8578643763 l 1,50,-1
 621.857864376 56.1421356237 l 1,51,-1
 755.857864376 56.1421356237 l 1,52,-1
 755.857864376 161.857864376 l 1,53,-1
 621.857864376 161.857864376 l 1,54,-1
 621.857864376 324.142135624 l 1,55,-1
 755.857864376 324.142135624 l 1,56,-1
 755.857864376 429.857864376 l 1,57,-1
 621.857864376 429.857864376 l 1,58,-1
 621.857864376 563.857864376 l 1,59,-1
 248.142135624 563.857864376 l 1,60,-1
 248.142135624 429.857864376 l 1,61,-1
 114.142135624 429.857864376 l 1,62,-1
 114.142135624 324.142135624 l 1,63,-1
 248.142135624 324.142135624 l 1,44,-1
219.857864376 295.857864376 m 1,64,-1
 85.8578643763 295.857864376 l 1,65,-1
 85.8578643763 458.142135624 l 1,66,-1
 219.857864376 458.142135624 l 1,67,-1
 219.857864376 592.142135624 l 1,68,-1
 650.142135624 592.142135624 l 1,69,-1
 650.142135624 458.142135624 l 1,70,-1
 784.142135624 458.142135624 l 1,71,-1
 784.142135624 295.857864376 l 1,72,-1
 650.142135624 295.857864376 l 1,73,-1
 650.142135624 190.142135624 l 1,74,-1
 784.142135624 190.142135624 l 1,75,-1
 784.142135624 27.8578643763 l 1,76,-1
 650.142135624 27.8578643763 l 1,77,-1
 650.142135624 -106.142135624 l 1,78,-1
 219.857864376 -106.142135624 l 1,79,-1
 219.857864376 27.8578643763 l 1,80,-1
 85.8578643763 27.8578643763 l 1,81,-1
 85.8578643763 190.142135624 l 1,82,-1
 219.857864376 190.142135624 l 1,83,-1
 219.857864376 295.857864376 l 1,64,-1
332.994949366 479.005050634 m 1,84,-1
 332.994949366 6.99494936612 l 1,85,-1
 537.005050634 6.99494936612 l 1,86,-1
 537.005050634 479.005050634 l 1,87,-1
 332.994949366 479.005050634 l 1,84,-1
EndSplineSet
Validated: 527365
EndChar

StartChar: nine
Encoding: 57 57 15
Width: 870
GlyphClass: 2
Flags: W
LayerCount: 2
Fore
SplineSet
600.994949366 211.005050634 m 1,0,-1
 269.005050634 211.005050634 l 1,1,-1
 269.005050634 542.994949366 l 1,2,-1
 600.994949366 542.994949366 l 1,3,-1
 600.994949366 211.005050634 l 1,0,-1
382.142135624 324.142135624 m 1,4,-1
 487.857864376 324.142135624 l 1,5,-1
 487.857864376 429.857864376 l 1,6,-1
 382.142135624 429.857864376 l 1,7,-1
 382.142135624 324.142135624 l 1,4,-1
353.857864376 295.857864376 m 1,8,-1
 353.857864376 458.142135624 l 1,9,-1
 516.142135624 458.142135624 l 1,10,-1
 516.142135624 295.857864376 l 1,11,-1
 353.857864376 295.857864376 l 1,8,-1
435 369.578643763 m 1,12,-1
 442.421356237 377 l 1,13,-1
 435 384.421356237 l 1,14,-1
 427.578643763 377 l 1,15,-1
 435 369.578643763 l 1,12,-1
135.005050634 211.005050634 m 1,16,-1
 1.00505063388 211.005050634 l 1,17,-1
 1.00505063388 542.994949366 l 1,18,-1
 135.005050634 542.994949366 l 1,19,-1
 135.005050634 676.994949366 l 1,20,-1
 734.994949366 676.994949366 l 1,21,-1
 734.994949366 546.427559039 l 1,22,-1
 868.994949366 552.427559039 l 1,23,-1
 868.994949366 -56.9949493661 l 1,24,-1
 734.994949366 -56.9949493661 l 1,25,-1
 734.994949366 -190.994949366 l 1,26,-1
 135.005050634 -190.994949366 l 1,27,-1
 135.005050634 211.005050634 l 1,16,-1
248.142135624 324.142135624 m 1,28,-1
 248.142135624 190.142135624 l 1,29,-1
 516.142135624 190.142135624 l 1,30,-1
 516.142135624 27.8578643763 l 1,31,-1
 248.142135624 27.8578643763 l 1,32,-1
 248.142135624 -77.8578643763 l 1,33,-1
 621.857864376 -77.8578643763 l 1,34,-1
 621.857864376 56.1421356237 l 1,35,-1
 755.857864376 56.1421356237 l 1,36,-1
 755.857864376 434.224634423 l 1,37,-1
 621.857864376 428.224634423 l 1,38,-1
 621.857864376 563.857864376 l 1,39,-1
 248.142135624 563.857864376 l 1,40,-1
 248.142135624 429.857864376 l 1,41,-1
 114.142135624 429.857864376 l 1,42,-1
 114.142135624 324.142135624 l 1,43,-1
 248.142135624 324.142135624 l 1,28,-1
219.857864376 295.857864376 m 1,44,-1
 85.8578643763 295.857864376 l 1,45,-1
 85.8578643763 458.142135624 l 1,46,-1
 219.857864376 458.142135624 l 1,47,-1
 219.857864376 592.142135624 l 1,48,-1
 650.142135624 592.142135624 l 1,49,-1
 650.142135624 457.775365577 l 1,50,-1
 784.142135624 463.775365577 l 1,51,-1
 784.142135624 27.8578643763 l 1,52,-1
 650.142135624 27.8578643763 l 1,53,-1
 650.142135624 -106.142135624 l 1,54,-1
 219.857864376 -106.142135624 l 1,55,-1
 219.857864376 56.1421356237 l 1,56,-1
 487.857864376 56.1421356237 l 1,57,-1
 487.857864376 161.857864376 l 1,58,-1
 219.857864376 161.857864376 l 1,59,-1
 219.857864376 295.857864376 l 1,44,-1
332.994949366 479.005050634 m 1,60,-1
 332.994949366 274.994949366 l 1,61,-1
 600.994949366 274.994949366 l 1,62,-1
 600.994949366 140.994949366 l 1,63,-1
 671.005050634 140.994949366 l 1,64,-1
 671.005050634 345.572440961 l 1,65,-1
 537.005050634 339.572440961 l 1,66,-1
 537.005050634 479.005050634 l 1,67,-1
 332.994949366 479.005050634 l 1,60,-1
EndSplineSet
Validated: 527365
EndChar

StartChar: A
Encoding: 65 65 16
AltUni2: 000061.ffffffff.0
Width: 870
GlyphClass: 2
Flags: W
LayerCount: 2
Fore
SplineSet
600.994949366 216.005050634 m 1,0,-1
 269.005050634 216.005050634 l 1,1,-1
 269.005050634 547.994949366 l 1,2,-1
 600.994949366 547.994949366 l 1,3,-1
 600.994949366 216.005050634 l 1,0,-1
382.142135624 329.142135624 m 1,4,-1
 487.857864376 329.142135624 l 1,5,-1
 487.857864376 434.857864376 l 1,6,-1
 382.142135624 434.857864376 l 1,7,-1
 382.142135624 329.142135624 l 1,4,-1
353.857864376 300.857864376 m 1,8,-1
 353.857864376 463.142135624 l 1,9,-1
 516.142135624 463.142135624 l 1,10,-1
 516.142135624 300.857864376 l 1,11,-1
 353.857864376 300.857864376 l 1,8,-1
435 374.578643763 m 1,12,-1
 442.421356237 382 l 1,13,-1
 435 389.421356237 l 1,14,-1
 427.578643763 382 l 1,15,-1
 435 374.578643763 l 1,12,-1
729.994949366 547.994949366 m 1,16,-1
 860.326495163 547.994949366 l 1,17,-1
 864.994949366 271 l 2,18,19
 868.994949366 75 868.994949366 75 868.994949366 3 c 2,20,-1
 868.994949366 -185.994949366 l 1,21,-1
 1.00505063388 -185.994949366 l 1,22,-1
 1.00505063388 547.994949366 l 1,23,-1
 135.005050634 547.994949366 l 1,24,-1
 135.005050634 682.994949366 l 1,25,-1
 729.994949366 682.994949366 l 1,26,-1
 729.994949366 547.994949366 l 1,16,-1
353.857864376 195.142135624 m 1,27,-1
 516.142135624 195.142135624 l 1,28,-1
 516.142135624 -72.8578643763 l 1,29,-1
 755.857864376 -72.8578643763 l 1,30,-1
 755.857864376 3 l 2,31,32
 755.857864376 75 755.857864376 75 751.857864376 271 c 2,33,-1
 749.096214977 434.857864376 l 1,34,-1
 616.857864376 434.857864376 l 1,35,-1
 616.857864376 569.857864376 l 1,36,-1
 248.142135624 569.857864376 l 1,37,-1
 248.142135624 434.857864376 l 1,38,-1
 114.142135624 434.857864376 l 1,39,-1
 114.142135624 -72.8578643763 l 1,40,-1
 353.857864376 -72.8578643763 l 1,41,-1
 353.857864376 195.142135624 l 1,27,-1
382.142135624 166.857864376 m 1,42,-1
 382.142135624 -101.142135624 l 1,43,-1
 85.8578643763 -101.142135624 l 1,44,-1
 85.8578643763 463.142135624 l 1,45,-1
 219.857864376 463.142135624 l 1,46,-1
 219.857864376 598.142135624 l 1,47,-1
 645.142135624 598.142135624 l 1,48,-1
 645.142135624 463.142135624 l 1,49,-1
 776.903785023 463.142135624 l 1,50,-1
 780.142135624 271 l 2,51,52
 784.142135624 75 784.142135624 75 784.142135624 3 c 2,53,-1
 784.142135624 -101.142135624 l 1,54,-1
 487.857864376 -101.142135624 l 1,55,-1
 487.857864376 166.857864376 l 1,56,-1
 382.142135624 166.857864376 l 1,42,-1
332.994949366 350.005050634 m 1,57,-1
 198.994949366 350.005050634 l 1,58,-1
 198.994949366 11.9949493661 l 1,59,-1
 269.005050634 11.9949493661 l 1,60,-1
 269.005050634 279.994949366 l 1,61,-1
 600.994949366 279.994949366 l 1,62,-1
 600.994949366 11.9949493661 l 1,63,-1
 670.990925718 11.9949493661 l 1,64,65
 670.767354052 86.6471325299 670.767354052 86.6471325299 667.005050634 271 c 2,66,-1
 665.673504837 350.005050634 l 1,67,-1
 532.005050634 350.005050634 l 1,68,-1
 532.005050634 485.005050634 l 1,69,-1
 332.994949366 485.005050634 l 1,70,-1
 332.994949366 350.005050634 l 1,57,-1
EndSplineSet
Validated: 527365
EndChar

StartChar: B
Encoding: 66 66 17
AltUni2: 000062.ffffffff.0
Width: 870
GlyphClass: 2
Flags: W
LayerCount: 2
Fore
SplineSet
600.994949366 -56.9949493661 m 1,0,-1
 269.005050634 -56.9949493661 l 1,1,-1
 269.005050634 274.994949366 l 1,2,-1
 600.994949366 274.994949366 l 1,3,-1
 600.994949366 -56.9949493661 l 1,0,-1
487.857864376 161.857864376 m 1,4,-1
 382.142135624 161.857864376 l 1,5,-1
 382.142135624 56.1421356237 l 1,6,-1
 487.857864376 56.1421356237 l 1,7,-1
 487.857864376 161.857864376 l 1,4,-1
353.857864376 27.8578643763 m 1,8,-1
 353.857864376 190.142135624 l 1,9,-1
 516.142135624 190.142135624 l 1,10,-1
 516.142135624 27.8578643763 l 1,11,-1
 353.857864376 27.8578643763 l 1,8,-1
435 101.578643763 m 1,12,-1
 442.421356237 109 l 1,13,-1
 435 116.421356237 l 1,14,-1
 427.578643763 109 l 1,15,-1
 435 101.578643763 l 1,12,-1
600.994949366 211.005050634 m 1,16,-1
 269.005050634 211.005050634 l 1,17,-1
 269.005050634 542.994949366 l 1,18,-1
 600.994949366 542.994949366 l 1,19,-1
 600.994949366 211.005050634 l 1,16,-1
382.142135624 324.142135624 m 1,20,-1
 487.857864376 324.142135624 l 1,21,-1
 487.857864376 429.857864376 l 1,22,-1
 382.142135624 429.857864376 l 1,23,-1
 382.142135624 324.142135624 l 1,20,-1
353.857864376 295.857864376 m 1,24,-1
 353.857864376 458.142135624 l 1,25,-1
 516.142135624 458.142135624 l 1,26,-1
 516.142135624 295.857864376 l 1,27,-1
 353.857864376 295.857864376 l 1,24,-1
435 369.578643763 m 1,28,-1
 442.421356237 377 l 1,29,-1
 435 384.421356237 l 1,30,-1
 427.578643763 377 l 1,31,-1
 435 369.578643763 l 1,28,-1
1.00505063388 -190.994949366 m 1,32,-1
 1.00505063388 676.994949366 l 1,33,-1
 734.994949366 676.994949366 l 1,34,-1
 734.994949366 542.994949366 l 1,35,-1
 868.994949366 542.994949366 l 1,36,-1
 868.994949366 -56.9949493661 l 1,37,-1
 734.994949366 -56.9949493661 l 1,38,-1
 734.994949366 -190.994949366 l 1,39,-1
 1.00505063388 -190.994949366 l 1,32,-1
114.142135624 563.857864376 m 1,40,-1
 114.142135624 -77.8578643763 l 1,41,-1
 621.857864376 -77.8578643763 l 1,42,-1
 621.857864376 56.1421356237 l 1,43,-1
 755.857864376 56.1421356237 l 1,44,-1
 755.857864376 161.857864376 l 1,45,-1
 621.857864376 161.857864376 l 1,46,-1
 621.857864376 324.142135624 l 1,47,-1
 755.857864376 324.142135624 l 1,48,-1
 755.857864376 429.857864376 l 1,49,-1
 621.857864376 429.857864376 l 1,50,-1
 621.857864376 563.857864376 l 1,51,-1
 114.142135624 563.857864376 l 1,40,-1
650.142135624 190.142135624 m 1,52,-1
 784.142135624 190.142135624 l 1,53,-1
 784.142135624 27.8578643763 l 1,54,-1
 650.142135624 27.8578643763 l 1,55,-1
 650.142135624 -106.142135624 l 1,56,-1
 85.8578643763 -106.142135624 l 1,57,-1
 85.8578643763 592.142135624 l 1,58,-1
 650.142135624 592.142135624 l 1,59,-1
 650.142135624 458.142135624 l 1,60,-1
 784.142135624 458.142135624 l 1,61,-1
 784.142135624 295.857864376 l 1,62,-1
 650.142135624 295.857864376 l 1,63,-1
 650.142135624 190.142135624 l 1,52,-1
537.005050634 479.005050634 m 1,64,-1
 198.994949366 479.005050634 l 1,65,-1
 198.994949366 6.99494936612 l 1,66,-1
 537.005050634 6.99494936612 l 1,67,-1
 537.005050634 479.005050634 l 1,64,-1
EndSplineSet
Validated: 527365
EndChar

StartChar: C
Encoding: 67 67 18
AltUni2: 000063.ffffffff.0
Width: 870
GlyphClass: 2
Flags: W
LayerCount: 2
Fore
SplineSet
734.994949366 -56.9949493661 m 1,0,-1
 734.994949366 -190.994949366 l 1,1,-1
 135.005050634 -190.994949366 l 1,2,-1
 135.005050634 -56.9949493661 l 1,3,-1
 1.00505063388 -56.9949493661 l 1,4,-1
 1.00505063388 542.994949366 l 1,5,-1
 135.005050634 542.994949366 l 1,6,-1
 135.005050634 676.994949366 l 1,7,-1
 734.994949366 676.994949366 l 1,8,-1
 734.994949366 542.994949366 l 1,9,-1
 868.994949366 542.994949366 l 1,10,-1
 868.994949366 -56.9949493661 l 1,11,-1
 734.994949366 -56.9949493661 l 1,0,-1
248.142135624 56.1421356237 m 1,12,-1
 248.142135624 -77.8578643763 l 1,13,-1
 621.857864376 -77.8578643763 l 1,14,-1
 621.857864376 56.1421356237 l 1,15,-1
 755.857864376 56.1421356237 l 1,16,-1
 755.857864376 161.857864376 l 1,17,-1
 516.142135624 161.857864376 l 1,18,-1
 516.142135624 27.8578643763 l 1,19,-1
 353.857864376 27.8578643763 l 1,20,-1
 353.857864376 458.142135624 l 1,21,-1
 516.142135624 458.142135624 l 1,22,-1
 516.142135624 324.142135624 l 1,23,-1
 755.857864376 324.142135624 l 1,24,-1
 755.857864376 429.857864376 l 1,25,-1
 621.857864376 429.857864376 l 1,26,-1
 621.857864376 563.857864376 l 1,27,-1
 248.142135624 563.857864376 l 1,28,-1
 248.142135624 429.857864376 l 1,29,-1
 114.142135624 429.857864376 l 1,30,-1
 114.142135624 56.1421356237 l 1,31,-1
 248.142135624 56.1421356237 l 1,12,-1
219.857864376 27.8578643763 m 1,32,-1
 85.8578643763 27.8578643763 l 1,33,-1
 85.8578643763 458.142135624 l 1,34,-1
 219.857864376 458.142135624 l 1,35,-1
 219.857864376 592.142135624 l 1,36,-1
 650.142135624 592.142135624 l 1,37,-1
 650.142135624 458.142135624 l 1,38,-1
 784.142135624 458.142135624 l 1,39,-1
 784.142135624 295.857864376 l 1,40,-1
 487.857864376 295.857864376 l 1,41,-1
 487.857864376 429.857864376 l 1,42,-1
 382.142135624 429.857864376 l 1,43,-1
 382.142135624 56.1421356237 l 1,44,-1
 487.857864376 56.1421356237 l 1,45,-1
 487.857864376 190.142135624 l 1,46,-1
 784.142135624 190.142135624 l 1,47,-1
 784.142135624 27.8578643763 l 1,48,-1
 650.142135624 27.8578643763 l 1,49,-1
 650.142135624 -106.142135624 l 1,50,-1
 219.857864376 -106.142135624 l 1,51,-1
 219.857864376 27.8578643763 l 1,32,-1
269.005050634 140.994949366 m 1,52,-1
 269.005050634 345.005050634 l 1,53,-1
 198.994949366 345.005050634 l 1,54,-1
 198.994949366 140.994949366 l 1,55,-1
 269.005050634 140.994949366 l 1,52,-1
EndSplineSet
Validated: 527369
EndChar

StartChar: D
Encoding: 68 68 19
AltUni2: 000064.ffffffff.0
Width: 870
GlyphClass: 2
Flags: W
LayerCount: 2
Fore
SplineSet
600.994949366 -56.9949493661 m 1,0,-1
 269.005050634 -56.9949493661 l 1,1,-1
 269.005050634 542.994949366 l 1,2,-1
 600.994949366 542.994949366 l 1,3,-1
 600.994949366 -56.9949493661 l 1,0,-1
487.857864376 429.857864376 m 1,4,-1
 382.142135624 429.857864376 l 1,5,-1
 382.142135624 56.1421356237 l 1,6,-1
 487.857864376 56.1421356237 l 1,7,-1
 487.857864376 429.857864376 l 1,4,-1
353.857864376 27.8578643763 m 1,8,-1
 353.857864376 458.142135624 l 1,9,-1
 516.142135624 458.142135624 l 1,10,-1
 516.142135624 27.8578643763 l 1,11,-1
 353.857864376 27.8578643763 l 1,8,-1
1.00505063388 -190.994949366 m 1,12,-1
 1.00505063388 676.994949366 l 1,13,-1
 734.994949366 676.994949366 l 1,14,-1
 734.994949366 542.994949366 l 1,15,-1
 868.994949366 542.994949366 l 1,16,-1
 868.994949366 -56.9949493661 l 1,17,-1
 734.994949366 -56.9949493661 l 1,18,-1
 734.994949366 -190.994949366 l 1,19,-1
 1.00505063388 -190.994949366 l 1,12,-1
114.142135624 563.857864376 m 1,20,-1
 114.142135624 -77.8578643763 l 1,21,-1
 621.857864376 -77.8578643763 l 1,22,-1
 621.857864376 56.1421356237 l 1,23,-1
 755.857864376 56.1421356237 l 1,24,-1
 755.857864376 429.857864376 l 1,25,-1
 621.857864376 429.857864376 l 1,26,-1
 621.857864376 563.857864376 l 1,27,-1
 114.142135624 563.857864376 l 1,20,-1
650.142135624 458.142135624 m 1,28,-1
 784.142135624 458.142135624 l 1,29,-1
 784.142135624 27.8578643763 l 1,30,-1
 650.142135624 27.8578643763 l 1,31,-1
 650.142135624 -106.142135624 l 1,32,-1
 85.8578643763 -106.142135624 l 1,33,-1
 85.8578643763 592.142135624 l 1,34,-1
 650.142135624 592.142135624 l 1,35,-1
 650.142135624 458.142135624 l 1,28,-1
537.005050634 140.994949366 m 1,36,-1
 671.005050634 140.994949366 l 1,37,-1
 671.005050634 345.005050634 l 1,38,-1
 537.005050634 345.005050634 l 1,39,-1
 537.005050634 479.005050634 l 1,40,-1
 198.994949366 479.005050634 l 1,41,-1
 198.994949366 6.99494936612 l 1,42,-1
 537.005050634 6.99494936612 l 1,43,-1
 537.005050634 140.994949366 l 1,36,-1
EndSplineSet
Validated: 527365
EndChar

StartChar: E
Encoding: 69 69 20
AltUni2: 000065.ffffffff.0
Width: 870
GlyphClass: 2
Flags: W
LayerCount: 2
Fore
SplineSet
1.00505063388 -190.994949366 m 1,0,-1
 1.00505063388 676.994949366 l 1,1,-1
 868.994949366 676.994949366 l 1,2,-1
 868.994949366 345.005050634 l 1,3,-1
 734.994949366 345.005050634 l 1,4,-1
 734.994949366 140.994949366 l 1,5,-1
 868.994949366 140.994949366 l 1,6,-1
 868.994949366 -190.994949366 l 1,7,-1
 1.00505063388 -190.994949366 l 1,0,-1
114.142135624 563.857864376 m 1,8,-1
 114.142135624 -77.8578643763 l 1,9,-1
 755.857864376 -77.8578643763 l 1,10,-1
 755.857864376 27.8578643763 l 1,11,-1
 353.857864376 27.8578643763 l 1,12,-1
 353.857864376 190.142135624 l 1,13,-1
 621.857864376 190.142135624 l 1,14,-1
 621.857864376 295.857864376 l 1,15,-1
 353.857864376 295.857864376 l 1,16,-1
 353.857864376 458.142135624 l 1,17,-1
 755.857864376 458.142135624 l 1,18,-1
 755.857864376 563.857864376 l 1,19,-1
 114.142135624 563.857864376 l 1,8,-1
85.8578643763 592.142135624 m 1,20,-1
 784.142135624 592.142135624 l 1,21,-1
 784.142135624 429.857864376 l 1,22,-1
 382.142135624 429.857864376 l 1,23,-1
 382.142135624 324.142135624 l 1,24,-1
 650.142135624 324.142135624 l 1,25,-1
 650.142135624 161.857864376 l 1,26,-1
 382.142135624 161.857864376 l 1,27,-1
 382.142135624 56.1421356237 l 1,28,-1
 784.142135624 56.1421356237 l 1,29,-1
 784.142135624 -106.142135624 l 1,30,-1
 85.8578643763 -106.142135624 l 1,31,-1
 85.8578643763 592.142135624 l 1,20,-1
269.005050634 479.005050634 m 1,32,-1
 198.994949366 479.005050634 l 1,33,-1
 198.994949366 6.99494936612 l 1,34,-1
 269.005050634 6.99494936612 l 1,35,-1
 269.005050634 479.005050634 l 1,32,-1
EndSplineSet
Validated: 527369
EndChar

StartChar: F
Encoding: 70 70 21
AltUni2: 000066.ffffffff.0
Width: 870
GlyphClass: 2
Flags: W
LayerCount: 2
Fore
SplineSet
1.00505063388 -190.994949366 m 1,0,-1
 1.00505063388 676.994949366 l 1,1,-1
 868.994949366 676.994949366 l 1,2,-1
 868.994949366 345.005050634 l 1,3,-1
 734.994949366 345.005050634 l 1,4,-1
 734.994949366 77.0050506339 l 1,5,-1
 466.994949366 77.0050506339 l 1,6,-1
 466.994949366 -190.994949366 l 1,7,-1
 1.00505063388 -190.994949366 l 1,0,-1
114.142135624 563.857864376 m 1,8,-1
 114.142135624 -77.8578643763 l 1,9,-1
 353.857864376 -77.8578643763 l 1,10,-1
 353.857864376 190.142135624 l 1,11,-1
 621.857864376 190.142135624 l 1,12,-1
 621.857864376 295.857864376 l 1,13,-1
 353.857864376 295.857864376 l 1,14,-1
 353.857864376 458.142135624 l 1,15,-1
 755.857864376 458.142135624 l 1,16,-1
 755.857864376 563.857864376 l 1,17,-1
 114.142135624 563.857864376 l 1,8,-1
85.8578643763 592.142135624 m 1,18,-1
 784.142135624 592.142135624 l 1,19,-1
 784.142135624 429.857864376 l 1,20,-1
 382.142135624 429.857864376 l 1,21,-1
 382.142135624 324.142135624 l 1,22,-1
 650.142135624 324.142135624 l 1,23,-1
 650.142135624 161.857864376 l 1,24,-1
 382.142135624 161.857864376 l 1,25,-1
 382.142135624 -106.142135624 l 1,26,-1
 85.8578643763 -106.142135624 l 1,27,-1
 85.8578643763 592.142135624 l 1,18,-1
269.005050634 479.005050634 m 1,28,-1
 198.994949366 479.005050634 l 1,29,-1
 198.994949366 6.99494936612 l 1,30,-1
 269.005050634 6.99494936612 l 1,31,-1
 269.005050634 479.005050634 l 1,28,-1
EndSplineSet
Validated: 526345
EndChar

StartChar: G
Encoding: 71 71 22
AltUni2: 000067.ffffffff.0
Width: 870
GlyphClass: 2
Flags: W
LayerCount: 2
Fore
SplineSet
1.00505063388 -62.4275590392 m 1,0,-1
 1.00505063388 547.994949366 l 1,1,-1
 135.005050634 547.994949366 l 1,2,-1
 135.005050634 682.994949366 l 1,3,-1
 868.994949366 682.994949366 l 1,4,-1
 868.994949366 350.005050634 l 1,5,-1
 466.994949366 350.005050634 l 1,6,-1
 466.994949366 145.994949366 l 1,7,-1
 734.994949366 145.994949366 l 1,8,-1
 734.994949366 -185.994949366 l 1,9,-1
 135.005050634 -185.994949366 l 1,10,-1
 135.005050634 -56.4275590392 l 1,11,-1
 1.00505063388 -62.4275590392 l 1,0,-1
114.142135624 434.857864376 m 1,12,-1
 114.142135624 55.775365577 l 1,13,-1
 167 58.1421356237 l 1,14,-1
 248.142135624 62.9864422281 l 1,15,-1
 248.142135624 -72.8578643763 l 1,16,-1
 621.857864376 -72.8578643763 l 1,17,-1
 621.857864376 32.8578643763 l 1,18,-1
 353.857864376 32.8578643763 l 1,19,-1
 353.857864376 463.142135624 l 1,20,-1
 755.857864376 463.142135624 l 1,21,-1
 755.857864376 569.857864376 l 1,22,-1
 248.142135624 569.857864376 l 1,23,-1
 248.142135624 434.857864376 l 1,24,-1
 114.142135624 434.857864376 l 1,12,-1
85.8578643763 26.224634423 m 1,25,-1
 85.8578643763 463.142135624 l 1,26,-1
 219.857864376 463.142135624 l 1,27,-1
 219.857864376 598.142135624 l 1,28,-1
 784.142135624 598.142135624 l 1,29,-1
 784.142135624 434.857864376 l 1,30,-1
 382.142135624 434.857864376 l 1,31,-1
 382.142135624 61.1421356237 l 1,32,-1
 650.142135624 61.1421356237 l 1,33,-1
 650.142135624 -101.142135624 l 1,34,-1
 219.857864376 -101.142135624 l 1,35,-1
 219.857864376 33.0135577719 l 1,36,-1
 167 29.8578643763 l 1,37,-1
 85.8578643763 26.224634423 l 1,25,-1
269.005050634 350.005050634 m 1,38,-1
 198.994949366 350.005050634 l 1,39,-1
 198.994949366 144.905095597 l 1,40,-1
 269.005050634 149.084803135 l 1,41,-1
 269.005050634 350.005050634 l 1,38,-1
537.005050634 82.0050506339 m 1,42,-1
 403.005050634 82.0050506339 l 1,43,-1
 403.005050634 413.994949366 l 1,44,-1
 868.994949366 413.994949366 l 1,45,-1
 868.994949366 -51.9949493661 l 1,46,-1
 537.005050634 -51.9949493661 l 1,47,-1
 537.005050634 82.0050506339 l 1,42,-1
650.142135624 195.142135624 m 1,48,-1
 650.142135624 61.1421356237 l 1,49,-1
 755.857864376 61.1421356237 l 1,50,-1
 755.857864376 300.857864376 l 1,51,-1
 516.142135624 300.857864376 l 1,52,-1
 516.142135624 195.142135624 l 1,53,-1
 650.142135624 195.142135624 l 1,48,-1
487.857864376 166.857864376 m 1,54,-1
 487.857864376 329.142135624 l 1,55,-1
 784.142135624 329.142135624 l 1,56,-1
 784.142135624 32.8578643763 l 1,57,-1
 621.857864376 32.8578643763 l 1,58,-1
 621.857864376 166.857864376 l 1,59,-1
 487.857864376 166.857864376 l 1,54,-1
EndSplineSet
Validated: 527365
EndChar

StartChar: H
Encoding: 72 72 23
AltUni2: 000068.ffffffff.0
Width: 870
GlyphClass: 2
Flags: W
LayerCount: 2
Fore
SplineSet
0.00505063388336 -185.994949366 m 1,0,-1
 0.00505063388336 682.994949366 l 1,1,-1
 862.994949366 682.994949366 l 1,2,-1
 862.994949366 373 l 2,3,4
 862.994949366 176 862.994949366 176 866.994949366 38 c 2,5,-1
 872.370828151 -185.994949366 l 1,6,-1
 0.00505063388336 -185.994949366 l 1,0,-1
113.142135624 569.857864376 m 1,7,-1
 113.142135624 -72.8578643763 l 1,8,-1
 352.857864376 -72.8578643763 l 1,9,-1
 352.857864376 195.142135624 l 1,10,-1
 515.142135624 195.142135624 l 1,11,-1
 515.142135624 -72.8578643763 l 1,12,-1
 756.518453121 -72.8578643763 l 1,13,-1
 753.857864376 38 l 2,14,15
 749.857864376 176 749.857864376 176 749.857864376 373 c 2,16,-1
 749.857864376 569.857864376 l 1,17,-1
 509.547746468 569.857864376 l 1,18,19
 512.742892743 484.056619281 512.742892743 484.056619281 517.510146588 300.857864376 c 1,20,-1
 352.857864376 300.857864376 l 1,21,-1
 352.857864376 569.857864376 l 1,22,-1
 113.142135624 569.857864376 l 1,7,-1
84.8578643763 598.142135624 m 1,23,-1
 381.142135624 598.142135624 l 1,24,-1
 381.142135624 329.142135624 l 1,25,-1
 488.395566236 329.142135624 l 1,26,-1
 480.947203076 598.142135624 l 1,27,-1
 778.142135624 598.142135624 l 1,28,-1
 778.142135624 373 l 2,29,30
 778.142135624 176 778.142135624 176 782.142135624 38 c 2,31,-1
 785.481546879 -101.142135624 l 1,32,-1
 486.857864376 -101.142135624 l 1,33,-1
 486.857864376 166.857864376 l 1,34,-1
 381.142135624 166.857864376 l 1,35,-1
 381.142135624 -101.142135624 l 1,36,-1
 84.8578643763 -101.142135624 l 1,37,-1
 84.8578643763 598.142135624 l 1,23,-1
268.005050634 485.005050634 m 1,38,-1
 197.994949366 485.005050634 l 1,39,-1
 197.994949366 11.9949493661 l 1,40,-1
 268.005050634 11.9949493661 l 1,41,-1
 268.005050634 485.005050634 l 1,38,-1
599.994949366 216.005050634 m 1,42,-1
 599.994949366 11.9949493661 l 1,43,-1
 669.629171849 11.9949493661 l 1,44,-1
 669.005050634 38 l 2,45,46
 665.005050634 176 665.005050634 176 665.005050634 373 c 2,47,-1
 665.005050634 485.005050634 l 1,48,-1
 597.216950132 485.005050634 l 1,49,-1
 604.665313292 216.005050634 l 1,50,-1
 599.994949366 216.005050634 l 1,42,-1
EndSplineSet
Validated: 527369
EndChar

StartChar: I
Encoding: 73 73 24
AltUni2: 000069.ffffffff.0
Width: 870
GlyphClass: 2
Flags: W
LayerCount: 2
Fore
SplineSet
202.005050634 -185.994949366 m 1,0,-1
 202.005050634 682.994949366 l 1,1,-1
 667.994949366 682.994949366 l 1,2,-1
 667.994949366 -185.994949366 l 1,3,-1
 202.005050634 -185.994949366 l 1,0,-1
315.142135624 569.857864376 m 1,4,-1
 315.142135624 -72.8578643763 l 1,5,-1
 554.857864376 -72.8578643763 l 1,6,-1
 554.857864376 569.857864376 l 1,7,-1
 315.142135624 569.857864376 l 1,4,-1
286.857864376 598.142135624 m 1,8,-1
 583.142135624 598.142135624 l 1,9,-1
 583.142135624 -101.142135624 l 1,10,-1
 286.857864376 -101.142135624 l 1,11,-1
 286.857864376 598.142135624 l 1,8,-1
470.005050634 485.005050634 m 1,12,-1
 399.994949366 485.005050634 l 1,13,-1
 399.994949366 11.9949493661 l 1,14,-1
 470.005050634 11.9949493661 l 1,15,-1
 470.005050634 485.005050634 l 1,12,-1
EndSplineSet
Validated: 526345
EndChar

StartChar: J
Encoding: 74 74 25
AltUni2: 00006a.ffffffff.0
Width: 870
GlyphClass: 2
Flags: W
LayerCount: 2
Fore
SplineSet
135.005050634 -56.9949493661 m 1,0,-1
 1.00505063388 -56.9949493661 l 1,1,-1
 1.00505063388 274.994949366 l 1,2,-1
 403.005050634 274.994949366 l 1,3,-1
 403.005050634 676.994949366 l 1,4,-1
 868.994949366 676.994949366 l 1,5,-1
 868.994949366 -56.9949493661 l 1,6,-1
 734.994949366 -56.9949493661 l 1,7,-1
 734.994949366 -190.994949366 l 1,8,-1
 135.005050634 -190.994949366 l 1,9,-1
 135.005050634 -56.9949493661 l 1,0,-1
516.142135624 27.8578643763 m 1,10,-1
 353.857864376 27.8578643763 l 1,11,-1
 353.857864376 161.857864376 l 1,12,-1
 114.142135624 161.857864376 l 1,13,-1
 114.142135624 56.1421356237 l 1,14,-1
 248.142135624 56.1421356237 l 1,15,-1
 248.142135624 -77.8578643763 l 1,16,-1
 621.857864376 -77.8578643763 l 1,17,-1
 621.857864376 56.1421356237 l 1,18,-1
 755.857864376 56.1421356237 l 1,19,-1
 755.857864376 563.857864376 l 1,20,-1
 516.142135624 563.857864376 l 1,21,-1
 516.142135624 27.8578643763 l 1,10,-1
382.142135624 56.1421356237 m 1,22,-1
 487.857864376 56.1421356237 l 1,23,-1
 487.857864376 592.142135624 l 1,24,-1
 784.142135624 592.142135624 l 1,25,-1
 784.142135624 27.8578643763 l 1,26,-1
 650.142135624 27.8578643763 l 1,27,-1
 650.142135624 -106.142135624 l 1,28,-1
 219.857864376 -106.142135624 l 1,29,-1
 219.857864376 27.8578643763 l 1,30,-1
 85.8578643763 27.8578643763 l 1,31,-1
 85.8578643763 190.142135624 l 1,32,-1
 382.142135624 190.142135624 l 1,33,-1
 382.142135624 56.1421356237 l 1,22,-1
600.994949366 479.005050634 m 1,34,-1
 600.994949366 140.994949366 l 1,35,-1
 671.005050634 140.994949366 l 1,36,-1
 671.005050634 479.005050634 l 1,37,-1
 600.994949366 479.005050634 l 1,34,-1
EndSplineSet
Validated: 527369
EndChar

StartChar: K
Encoding: 75 75 26
AltUni2: 00006b.ffffffff.0
Width: 870
GlyphClass: 2
Flags: W
LayerCount: 2
Fore
SplineSet
1.00505063388 -190.994949366 m 1,0,-1
 1.00505063388 676.994949366 l 1,1,-1
 868.994949366 676.994949366 l 1,2,-1
 868.994949366 -190.994949366 l 1,3,-1
 1.00505063388 -190.994949366 l 1,0,-1
114.142135624 563.857864376 m 1,4,-1
 114.142135624 -77.8578643763 l 1,5,-1
 353.857864376 -77.8578643763 l 1,6,-1
 353.857864376 190.142135624 l 1,7,-1
 516.142135624 190.142135624 l 1,8,-1
 516.142135624 -77.8578643763 l 1,9,-1
 755.857864376 -77.8578643763 l 1,10,-1
 755.857864376 161.857864376 l 1,11,-1
 621.857864376 161.857864376 l 1,12,-1
 621.857864376 324.142135624 l 1,13,-1
 755.857864376 324.142135624 l 1,14,-1
 755.857864376 563.857864376 l 1,15,-1
 516.142135624 563.857864376 l 1,16,-1
 516.142135624 295.857864376 l 1,17,-1
 353.857864376 295.857864376 l 1,18,-1
 353.857864376 563.857864376 l 1,19,-1
 114.142135624 563.857864376 l 1,4,-1
85.8578643763 592.142135624 m 1,20,-1
 382.142135624 592.142135624 l 1,21,-1
 382.142135624 324.142135624 l 1,22,-1
 487.857864376 324.142135624 l 1,23,-1
 487.857864376 592.142135624 l 1,24,-1
 784.142135624 592.142135624 l 1,25,-1
 784.142135624 295.857864376 l 1,26,-1
 650.142135624 295.857864376 l 1,27,-1
 650.142135624 190.142135624 l 1,28,-1
 784.142135624 190.142135624 l 1,29,-1
 784.142135624 -106.142135624 l 1,30,-1
 487.857864376 -106.142135624 l 1,31,-1
 487.857864376 161.857864376 l 1,32,-1
 382.142135624 161.857864376 l 1,33,-1
 382.142135624 -106.142135624 l 1,34,-1
 85.8578643763 -106.142135624 l 1,35,-1
 85.8578643763 592.142135624 l 1,20,-1
269.005050634 479.005050634 m 1,36,-1
 198.994949366 479.005050634 l 1,37,-1
 198.994949366 6.99494936612 l 1,38,-1
 269.005050634 6.99494936612 l 1,39,-1
 269.005050634 479.005050634 l 1,36,-1
600.994949366 479.005050634 m 1,40,-1
 600.994949366 408.994949366 l 1,41,-1
 671.005050634 408.994949366 l 1,42,-1
 671.005050634 479.005050634 l 1,43,-1
 600.994949366 479.005050634 l 1,40,-1
671.005050634 77.0050506339 m 1,44,-1
 600.994949366 77.0050506339 l 1,45,-1
 600.994949366 6.99494936612 l 1,46,-1
 671.005050634 6.99494936612 l 1,47,-1
 671.005050634 77.0050506339 l 1,44,-1
EndSplineSet
Validated: 527369
EndChar

StartChar: L
Encoding: 76 76 27
AltUni2: 00006c.ffffffff.0
Width: 870
GlyphClass: 2
Flags: W
LayerCount: 2
Fore
SplineSet
1.00505063388 -190.994949366 m 1,0,-1
 1.00505063388 676.994949366 l 1,1,-1
 466.994949366 676.994949366 l 1,2,-1
 466.994949366 140.994949366 l 1,3,-1
 868.994949366 140.994949366 l 1,4,-1
 868.994949366 -190.994949366 l 1,5,-1
 1.00505063388 -190.994949366 l 1,0,-1
114.142135624 563.857864376 m 1,6,-1
 114.142135624 -77.8578643763 l 1,7,-1
 755.857864376 -77.8578643763 l 1,8,-1
 755.857864376 27.8578643763 l 1,9,-1
 353.857864376 27.8578643763 l 1,10,-1
 353.857864376 563.857864376 l 1,11,-1
 114.142135624 563.857864376 l 1,6,-1
784.142135624 56.1421356237 m 1,12,-1
 784.142135624 -106.142135624 l 1,13,-1
 85.8578643763 -106.142135624 l 1,14,-1
 85.8578643763 592.142135624 l 1,15,-1
 382.142135624 592.142135624 l 1,16,-1
 382.142135624 56.1421356237 l 1,17,-1
 784.142135624 56.1421356237 l 1,12,-1
269.005050634 479.005050634 m 1,18,-1
 198.994949366 479.005050634 l 1,19,-1
 198.994949366 6.99494936612 l 1,20,-1
 269.005050634 6.99494936612 l 1,21,-1
 269.005050634 479.005050634 l 1,18,-1
EndSplineSet
Validated: 526345
EndChar

StartChar: M
Encoding: 77 77 28
AltUni2: 00006d.ffffffff.0
Width: 870
GlyphClass: 2
Flags: W
LayerCount: 2
Fore
SplineSet
1.00505063388 -190.994949366 m 1,0,-1
 1.00505063388 676.994949366 l 1,1,-1
 868.994949366 676.994949366 l 1,2,-1
 868.994949366 -190.994949366 l 1,3,-1
 1.00505063388 -190.994949366 l 1,0,-1
114.142135624 563.857864376 m 1,4,-1
 114.142135624 -77.8578643763 l 1,5,-1
 353.857864376 -77.8578643763 l 1,6,-1
 353.857864376 190.142135624 l 1,7,-1
 516.142135624 190.142135624 l 1,8,-1
 516.142135624 -77.8578643763 l 1,9,-1
 755.857864376 -77.8578643763 l 1,10,-1
 755.857864376 563.857864376 l 1,11,-1
 516.142135624 563.857864376 l 1,12,-1
 516.142135624 429.857864376 l 1,13,-1
 353.857864376 429.857864376 l 1,14,-1
 353.857864376 563.857864376 l 1,15,-1
 114.142135624 563.857864376 l 1,4,-1
85.8578643763 592.142135624 m 1,16,-1
 382.142135624 592.142135624 l 1,17,-1
 382.142135624 458.142135624 l 1,18,-1
 487.857864376 458.142135624 l 1,19,-1
 487.857864376 592.142135624 l 1,20,-1
 784.142135624 592.142135624 l 1,21,-1
 784.142135624 -106.142135624 l 1,22,-1
 487.857864376 -106.142135624 l 1,23,-1
 487.857864376 161.857864376 l 1,24,-1
 382.142135624 161.857864376 l 1,25,-1
 382.142135624 -106.142135624 l 1,26,-1
 85.8578643763 -106.142135624 l 1,27,-1
 85.8578643763 592.142135624 l 1,16,-1
269.005050634 479.005050634 m 1,28,-1
 198.994949366 479.005050634 l 1,29,-1
 198.994949366 6.99494936612 l 1,30,-1
 269.005050634 6.99494936612 l 1,31,-1
 269.005050634 274.994949366 l 1,32,-1
 600.994949366 274.994949366 l 1,33,-1
 600.994949366 6.99494936612 l 1,34,-1
 671.005050634 6.99494936612 l 1,35,-1
 671.005050634 479.005050634 l 1,36,-1
 600.994949366 479.005050634 l 1,37,-1
 600.994949366 345.005050634 l 1,38,-1
 269.005050634 345.005050634 l 1,39,-1
 269.005050634 479.005050634 l 1,28,-1
EndSplineSet
Validated: 527369
EndChar

StartChar: N
Encoding: 78 78 29
AltUni2: 00006e.ffffffff.0
Width: 870
GlyphClass: 2
Flags: W
LayerCount: 2
Fore
SplineSet
1.00505063388 -190.994949366 m 1,0,-1
 1.00505063388 676.994949366 l 1,1,-1
 868.994949366 676.994949366 l 1,2,-1
 868.994949366 -190.994949366 l 1,3,-1
 537.005050634 -190.994949366 l 1,4,-1
 537.005050634 -56.9949493661 l 1,5,-1
 466.994949366 -56.9949493661 l 1,6,-1
 466.994949366 -190.994949366 l 1,7,-1
 1.00505063388 -190.994949366 l 1,0,-1
114.142135624 563.857864376 m 1,8,-1
 114.142135624 -77.8578643763 l 1,9,-1
 353.857864376 -77.8578643763 l 1,10,-1
 353.857864376 190.142135624 l 1,11,-1
 516.142135624 190.142135624 l 1,12,-1
 516.142135624 56.1421356237 l 1,13,-1
 650.142135624 56.1421356237 l 1,14,-1
 650.142135624 -77.8578643763 l 1,15,-1
 755.857864376 -77.8578643763 l 1,16,-1
 755.857864376 563.857864376 l 1,17,-1
 516.142135624 563.857864376 l 1,18,-1
 516.142135624 429.857864376 l 1,19,-1
 353.857864376 429.857864376 l 1,20,-1
 353.857864376 563.857864376 l 1,21,-1
 114.142135624 563.857864376 l 1,8,-1
85.8578643763 592.142135624 m 1,22,-1
 382.142135624 592.142135624 l 1,23,-1
 382.142135624 458.142135624 l 1,24,-1
 487.857864376 458.142135624 l 1,25,-1
 487.857864376 592.142135624 l 1,26,-1
 784.142135624 592.142135624 l 1,27,-1
 784.142135624 -106.142135624 l 1,28,-1
 621.857864376 -106.142135624 l 1,29,-1
 621.857864376 27.8578643763 l 1,30,-1
 487.857864376 27.8578643763 l 1,31,-1
 487.857864376 161.857864376 l 1,32,-1
 382.142135624 161.857864376 l 1,33,-1
 382.142135624 -106.142135624 l 1,34,-1
 85.8578643763 -106.142135624 l 1,35,-1
 85.8578643763 592.142135624 l 1,22,-1
269.005050634 479.005050634 m 1,36,-1
 198.994949366 479.005050634 l 1,37,-1
 198.994949366 6.99494936612 l 1,38,-1
 269.005050634 6.99494936612 l 1,39,-1
 269.005050634 274.994949366 l 1,40,-1
 600.994949366 274.994949366 l 1,41,-1
 600.994949366 140.994949366 l 1,42,-1
 671.005050634 140.994949366 l 1,43,-1
 671.005050634 479.005050634 l 1,44,-1
 600.994949366 479.005050634 l 1,45,-1
 600.994949366 345.005050634 l 1,46,-1
 269.005050634 345.005050634 l 1,47,-1
 269.005050634 479.005050634 l 1,36,-1
EndSplineSet
Validated: 527369
EndChar

StartChar: O
Encoding: 79 79 30
AltUni2: 00006f.ffffffff.0
Width: 870
GlyphClass: 2
Flags: W
LayerCount: 2
Fore
SplineSet
600.994949366 -56.9949493661 m 1,0,-1
 269.005050634 -56.9949493661 l 1,1,-1
 269.005050634 539.581330422 l 1,2,-1
 426 544.994949366 l 2,3,4
 453 544.994949366 453 544.994949366 472 545.994949366 c 128,-1,5
 491 546.994949366 491 546.994949366 493 546.994949366 c 2,6,-1
 494 546.994949366 l 2,7,8
 495.384615385 546.994949366 495.384615385 546.994949366 496.449704142 545.929860609 c 2,9,-1
 595.444653508 446.934911243 l 2,10,11
 596.687257058 445.692307692 596.687257058 445.692307692 597.841103212 441.846153846 c 0,12,13
 600.994949366 431.333333333 600.994949366 431.333333333 600.994949366 356.5 c 2,14,-1
 600.994949366 -56.9949493661 l 1,0,-1
485.991417557 433.57150641 m 1,15,16
 450.454852019 431.857864376 450.454852019 431.857864376 426 431.857864376 c 2,17,-1
 382.142135624 430.345524225 l 1,18,-1
 382.142135624 56.1421356237 l 1,19,-1
 487.857864376 56.1421356237 l 1,20,-1
 487.857864376 356.5 l 2,21,22
 487.857864376 414.068199737 487.857864376 414.068199737 485.991417557 433.57150641 c 1,15,16
482.307568518 446.934911243 m 1,23,-1
 482.307568518 446.934911243 l 1,23,-1
516.142135624 356.5 m 2,24,-1
 516.142135624 27.8578643763 l 1,25,-1
 353.857864376 27.8578643763 l 1,26,-1
 353.857864376 457.654475775 l 1,27,-1
 426 460.142135624 l 2,28,29
 439.012367655 460.142135624 439.012367655 460.142135624 513.824537995 462.466003166 c 1,30,31
 516.142135624 384.452377898 516.142135624 384.452377898 516.142135624 356.5 c 2,24,-1
135.005050634 542.994949366 m 1,32,-1
 135.005050634 675.109331283 l 1,33,-1
 339 678.994949366 l 1,34,35
 508.68 679.834949366 508.68 679.834949366 540 680.994949366 c 2,36,-1
 734.994949366 685.057344145 l 1,37,-1
 734.994949366 547.994949366 l 1,38,-1
 868.994949366 547.994949366 l 1,39,-1
 868.994949366 -51.9949493661 l 1,40,-1
 734.994949366 -51.9949493661 l 1,41,-1
 734.994949366 -190.994949366 l 1,42,-1
 135.005050634 -190.994949366 l 1,43,-1
 135.005050634 -56.9949493661 l 1,44,-1
 1.00505063388 -56.9949493661 l 1,45,-1
 1.00505063388 542.994949366 l 1,46,-1
 135.005050634 542.994949366 l 1,32,-1
755.857864376 434.857864376 m 1,47,-1
 621.857864376 434.857864376 l 1,48,-1
 621.857864376 569.563236551 l 1,49,-1
 540 567.857864376 l 2,50,51
 508.68 566.697864376 508.68 566.697864376 339 565.857864376 c 1,52,-1
 248.142135624 564.127238388 l 1,53,-1
 248.142135624 429.857864376 l 1,54,-1
 114.142135624 429.857864376 l 1,55,-1
 114.142135624 56.1421356237 l 1,56,-1
 248.142135624 56.1421356237 l 1,57,-1
 248.142135624 -77.8578643763 l 1,58,-1
 621.857864376 -77.8578643763 l 1,59,-1
 621.857864376 61.1421356237 l 1,60,-1
 755.857864376 61.1421356237 l 1,61,-1
 755.857864376 434.857864376 l 1,47,-1
219.857864376 27.8578643763 m 1,62,-1
 85.8578643763 27.8578643763 l 1,63,-1
 85.8578643763 458.142135624 l 1,64,-1
 219.857864376 458.142135624 l 1,65,-1
 219.857864376 591.872761612 l 1,66,-1
 339 594.142135624 l 1,67,-1
 440 594.642135624 l 2,68,69
 481.714285715 594.927849909 481.714285715 594.927849909 650.142135624 598.436763449 c 1,70,-1
 650.142135624 463.142135624 l 1,71,-1
 784.142135624 463.142135624 l 1,72,-1
 784.142135624 32.8578643763 l 1,73,-1
 650.142135624 32.8578643763 l 1,74,-1
 650.142135624 -106.142135624 l 1,75,-1
 219.857864376 -106.142135624 l 1,76,-1
 219.857864376 27.8578643763 l 1,62,-1
332.994949366 345.005050634 m 1,77,-1
 198.994949366 345.005050634 l 1,78,-1
 198.994949366 140.994949366 l 1,79,-1
 332.994949366 140.994949366 l 1,80,-1
 332.994949366 6.99494936612 l 1,81,-1
 537.005050634 6.99494936612 l 1,82,-1
 537.005050634 145.994949366 l 1,83,-1
 671.005050634 145.994949366 l 1,84,-1
 671.005050634 350.005050634 l 1,85,-1
 537.005050634 350.005050634 l 1,86,-1
 537.005050634 482.987380608 l 1,87,88
 466.11188334 481.634317383 466.11188334 481.634317383 339 481.005050634 c 1,89,-1
 332.994949366 480.890668717 l 1,90,-1
 332.994949366 345.005050634 l 1,77,-1
EndSplineSet
Validated: 527365
EndChar

StartChar: P
Encoding: 80 80 31
AltUni2: 000070.ffffffff.0
Width: 870
GlyphClass: 2
Flags: W
LayerCount: 2
Fore
SplineSet
600.994949366 216.005050634 m 1,0,-1
 269.005050634 216.005050634 l 1,1,-1
 269.005050634 547.994949366 l 1,2,-1
 600.994949366 547.994949366 l 1,3,-1
 600.994949366 216.005050634 l 1,0,-1
382.142135624 329.142135624 m 1,4,-1
 487.857864376 329.142135624 l 1,5,-1
 487.857864376 434.857864376 l 1,6,-1
 382.142135624 434.857864376 l 1,7,-1
 382.142135624 329.142135624 l 1,4,-1
353.857864376 300.857864376 m 1,8,-1
 353.857864376 463.142135624 l 1,9,-1
 516.142135624 463.142135624 l 1,10,-1
 516.142135624 300.857864376 l 1,11,-1
 353.857864376 300.857864376 l 1,8,-1
435 374.578643763 m 1,12,-1
 442.421356237 382 l 1,13,-1
 435 389.421356237 l 1,14,-1
 427.578643763 382 l 1,15,-1
 435 374.578643763 l 1,12,-1
1.00505063388 -185.994949366 m 1,16,-1
 1.00505063388 682.994949366 l 1,17,-1
 734.994949366 682.994949366 l 1,18,-1
 734.994949366 547.994949366 l 1,19,-1
 868.994949366 547.994949366 l 1,20,-1
 868.994949366 216.005050634 l 1,21,-1
 734.994949366 216.005050634 l 1,22,-1
 734.994949366 82.0050506339 l 1,23,-1
 466.994949366 82.0050506339 l 1,24,-1
 466.994949366 -185.994949366 l 1,25,-1
 1.00505063388 -185.994949366 l 1,16,-1
114.142135624 569.857864376 m 1,26,-1
 114.142135624 -72.8578643763 l 1,27,-1
 353.857864376 -72.8578643763 l 1,28,-1
 353.857864376 195.142135624 l 1,29,-1
 621.857864376 195.142135624 l 1,30,-1
 621.857864376 329.142135624 l 1,31,-1
 755.857864376 329.142135624 l 1,32,-1
 755.857864376 434.857864376 l 1,33,-1
 621.857864376 434.857864376 l 1,34,-1
 621.857864376 569.857864376 l 1,35,-1
 114.142135624 569.857864376 l 1,26,-1
650.142135624 300.857864376 m 1,36,-1
 650.142135624 166.857864376 l 1,37,-1
 382.142135624 166.857864376 l 1,38,-1
 382.142135624 -101.142135624 l 1,39,-1
 85.8578643763 -101.142135624 l 1,40,-1
 85.8578643763 598.142135624 l 1,41,-1
 650.142135624 598.142135624 l 1,42,-1
 650.142135624 463.142135624 l 1,43,-1
 784.142135624 463.142135624 l 1,44,-1
 784.142135624 300.857864376 l 1,45,-1
 650.142135624 300.857864376 l 1,36,-1
269.005050634 279.994949366 m 1,46,-1
 537.005050634 279.994949366 l 1,47,-1
 537.005050634 485.005050634 l 1,48,-1
 198.994949366 485.005050634 l 1,49,-1
 198.994949366 11.9949493661 l 1,50,-1
 269.005050634 11.9949493661 l 1,51,-1
 269.005050634 279.994949366 l 1,46,-1
EndSplineSet
Validated: 527365
EndChar

StartChar: Q
Encoding: 81 81 32
AltUni2: 000071.ffffffff.0
Width: 870
GlyphClass: 2
Flags: W
LayerCount: 2
Fore
SplineSet
600.994949366 -51.9949493661 m 1,0,-1
 269.005050634 -51.9949493661 l 1,1,-1
 269.005050634 547.994949366 l 1,2,-1
 588.055252404 547.994949366 l 1,3,-1
 596.994949366 399 l 2,4,5
 600.994949366 343 600.994949366 343 600.994949366 198 c 2,6,-1
 600.994949366 -51.9949493661 l 1,0,-1
487.857864376 198 m 2,7,8
 487.857864376 343 487.857864376 343 483.857864376 399 c 2,9,-1
 481.706392514 434.857864376 l 1,10,-1
 382.142135624 434.857864376 l 1,11,-1
 382.142135624 61.1421356237 l 1,12,-1
 487.857864376 61.1421356237 l 1,13,-1
 487.857864376 198 l 2,7,8
516.142135624 32.8578643763 m 1,14,-1
 353.857864376 32.8578643763 l 1,15,-1
 353.857864376 463.142135624 l 1,16,-1
 508.293607486 463.142135624 l 1,17,-1
 511.687720036 406.573593129 l 2,18,19
 516 332 516 332 516.142135624 198 c 2,20,-1
 516.142135624 32.8578643763 l 1,14,-1
403.005050634 -185.994949366 m 1,21,-1
 135.005050634 -185.994949366 l 1,22,-1
 135.005050634 -51.9949493661 l 1,23,-1
 1.00505063388 -51.9949493661 l 1,24,-1
 1.00505063388 547.994949366 l 1,25,-1
 135.005050634 547.994949366 l 1,26,-1
 135.005050634 682.994949366 l 1,27,-1
 729.994949366 682.994949366 l 1,28,-1
 729.994949366 547.994949366 l 1,29,-1
 863.994949366 547.994949366 l 1,30,-1
 863.994949366 11.9949493661 l 1,31,-1
 868.994949366 11.9949493661 l 1,32,-1
 868.994949366 -298.994949366 l 1,33,-1
 403.005050634 -298.994949366 l 1,34,-1
 403.005050634 -185.994949366 l 1,21,-1
248.142135624 61.1421356237 m 1,35,-1
 248.142135624 -72.8578643763 l 1,36,-1
 516.142135624 -72.8578643763 l 1,37,-1
 516.142135624 -185.857864376 l 1,38,-1
 755.857864376 -185.857864376 l 1,39,-1
 755.857864376 -101.142135624 l 1,40,-1
 621.857864376 -101.142135624 l 1,41,-1
 621.857864376 61.1421356237 l 1,42,-1
 750.857864376 61.1421356237 l 1,43,-1
 750.857864376 434.857864376 l 1,44,-1
 616.857864376 434.857864376 l 1,45,-1
 616.857864376 569.857864376 l 1,46,-1
 248.142135624 569.857864376 l 1,47,-1
 248.142135624 434.857864376 l 1,48,-1
 114.142135624 434.857864376 l 1,49,-1
 114.142135624 61.1421356237 l 1,50,-1
 248.142135624 61.1421356237 l 1,35,-1
219.857864376 32.8578643763 m 1,51,-1
 85.8578643763 32.8578643763 l 1,52,-1
 85.8578643763 463.142135624 l 1,53,-1
 219.857864376 463.142135624 l 1,54,-1
 219.857864376 598.142135624 l 1,55,-1
 645.142135624 598.142135624 l 1,56,-1
 645.142135624 463.142135624 l 1,57,-1
 779.142135624 463.142135624 l 1,58,-1
 779.142135624 32.8578643763 l 1,59,-1
 650.142135624 32.8578643763 l 1,60,-1
 650.142135624 -72.8578643763 l 1,61,-1
 784.142135624 -72.8578643763 l 1,62,-1
 784.142135624 -214.142135624 l 1,63,-1
 487.857864376 -214.142135624 l 1,64,-1
 487.857864376 -101.142135624 l 1,65,-1
 219.857864376 -101.142135624 l 1,66,-1
 219.857864376 32.8578643763 l 1,51,-1
332.994949366 350.005050634 m 1,67,-1
 198.994949366 350.005050634 l 1,68,-1
 198.994949366 145.994949366 l 1,69,-1
 332.994949366 145.994949366 l 1,70,-1
 332.994949366 11.9949493661 l 1,71,-1
 537.005050634 11.9949493661 l 1,72,-1
 537.005050634 145.994949366 l 1,73,-1
 666.005050634 145.994949366 l 1,74,-1
 666.005050634 350.005050634 l 1,75,-1
 532.005050634 350.005050634 l 1,76,-1
 532.005050634 485.005050634 l 1,77,-1
 332.994949366 485.005050634 l 1,78,-1
 332.994949366 350.005050634 l 1,67,-1
EndSplineSet
Validated: 527365
EndChar

StartChar: R
Encoding: 82 82 33
AltUni2: 000072.ffffffff.0
Width: 870
GlyphClass: 2
Flags: W
LayerCount: 2
Fore
SplineSet
598.994949366 214.005050634 m 1,0,-1
 436 214.005050634 l 2,1,2
 375.642857143 214.005050634 375.642857143 214.005050634 368.744897959 220.903009818 c 2,3,-1
 269.749948593 319.897959184 l 2,4,5
 266.005050634 323.642857143 266.005050634 323.642857143 266.005050634 389 c 2,6,-1
 266.005050634 546.994949366 l 1,7,-1
 598.994949366 546.994949366 l 1,8,-1
 598.994949366 214.005050634 l 1,0,-1
436 327.142135624 m 2,9,-1
 485.857864376 327.142135624 l 1,10,-1
 485.857864376 433.857864376 l 1,11,-1
 379.142135624 433.857864376 l 1,12,-1
 379.142135624 389 l 2,13,14
 379.142135624 346.36835226 379.142135624 346.36835226 380.735511029 329.951420313 c 1,15,16
 397.481777342 327.142135624 397.481777342 327.142135624 436 327.142135624 c 2,9,-1
436 298.857864376 m 2,17,18
 419.978912258 298.857864376 419.978912258 298.857864376 352.324811893 301.541021287 c 1,19,20
 350.857864376 369.774092008 350.857864376 369.774092008 350.857864376 389 c 2,21,-1
 350.857864376 462.142135624 l 1,22,-1
 514.142135624 462.142135624 l 1,23,-1
 514.142135624 298.857864376 l 1,24,-1
 436 298.857864376 l 2,17,18
439.313368926 380.892012689 m 1,25,-1
 432.892012689 387.313368926 l 1,26,-1
 426.078643763 380.5 l 1,27,-1
 432.5 374.078643763 l 1,28,-1
 439.313368926 380.892012689 l 1,25,-1
2.00505063388 -189.994949366 m 1,29,-1
 2.00505063388 680.994949366 l 1,30,-1
 733.994949366 680.994949366 l 1,31,-1
 733.994949366 546.994949366 l 1,32,-1
 867.994949366 546.994949366 l 1,33,-1
 867.994949366 -189.994949366 l 1,34,-1
 2.00505063388 -189.994949366 l 1,29,-1
115.142135624 567.857864376 m 1,35,-1
 115.142135624 -76.8578643763 l 1,36,-1
 355.857864376 -76.8578643763 l 1,37,-1
 355.857864376 192.142135624 l 1,38,-1
 511.728794435 192.142135624 l 1,39,-1
 516.35116775 135.573593129 l 2,40,41
 519.142135624 101.417765802 519.142135624 101.417765802 519.142135624 4 c 2,42,-1
 519.142135624 -76.8578643763 l 1,43,-1
 754.857864376 -76.8578643763 l 1,44,-1
 754.857864376 163.857864376 l 1,45,-1
 620.857864376 163.857864376 l 1,46,-1
 620.857864376 327.142135624 l 1,47,-1
 754.857864376 327.142135624 l 1,48,-1
 754.857864376 433.857864376 l 1,49,-1
 620.857864376 433.857864376 l 1,50,-1
 620.857864376 567.857864376 l 1,51,-1
 115.142135624 567.857864376 l 1,35,-1
86.8578643763 596.142135624 m 1,52,-1
 649.142135624 596.142135624 l 1,53,-1
 649.142135624 462.142135624 l 1,54,-1
 783.142135624 462.142135624 l 1,55,-1
 783.142135624 298.857864376 l 1,56,-1
 649.142135624 298.857864376 l 1,57,-1
 649.142135624 192.142135624 l 1,58,-1
 783.142135624 192.142135624 l 1,59,-1
 783.142135624 -105.142135624 l 1,60,-1
 490.857864376 -105.142135624 l 1,61,-1
 490.857864376 4 l 2,62,63
 490.857864376 105 490.857864376 105 487.857864376 138 c 2,64,-1
 485.272077939 163.857864376 l 1,65,-1
 384.142135624 163.857864376 l 1,66,-1
 384.142135624 -105.142135624 l 1,67,-1
 86.8578643763 -105.142135624 l 1,68,-1
 86.8578643763 596.142135624 l 1,52,-1
536.005050634 483.005050634 m 1,69,-1
 199.994949366 483.005050634 l 1,70,-1
 199.994949366 7.99494936612 l 1,71,-1
 271.005050634 7.99494936612 l 1,72,-1
 271.005050634 276.994949366 l 1,73,-1
 536.005050634 276.994949366 l 1,74,-1
 536.005050634 483.005050634 l 1,69,-1
670.005050634 79.0050506339 m 1,75,-1
 603.427231414 79.0050506339 l 1,76,77
 603.968965276 49.3586425332 603.968965276 49.3586425332 603.993760091 7.99494936612 c 1,78,-1
 670.005050634 7.99494936612 l 1,79,-1
 670.005050634 79.0050506339 l 1,75,-1
EndSplineSet
Validated: 527365
EndChar

StartChar: S
Encoding: 83 83 34
AltUni2: 000073.ffffffff.0
Width: 870
GlyphClass: 2
Flags: W
LayerCount: 2
Fore
SplineSet
134.005050634 142.994949366 m 1,0,-1
 134.005050634 214.005050634 l 1,1,-1
 -0.994949366117 214.005050634 l 1,2,-1
 -0.994949366117 546.994949366 l 1,3,-1
 134.005050634 546.994949366 l 1,4,-1
 134.005050634 680.994949366 l 1,5,-1
 870.994949366 680.994949366 l 1,6,-1
 870.994949366 349.005050634 l 1,7,-1
 735.994949366 349.005050634 l 1,8,-1
 735.994949366 276.994949366 l 1,9,-1
 870.994949366 276.994949366 l 1,10,-1
 870.994949366 -54.9949493661 l 1,11,-1
 735.994949366 -54.9949493661 l 1,12,-1
 735.994949366 -189.994949366 l 1,13,-1
 -0.994949366117 -189.994949366 l 1,14,-1
 -0.994949366117 142.994949366 l 1,15,-1
 134.005050634 142.994949366 l 1,0,-1
247.142135624 327.142135624 m 1,16,-1
 247.142135624 192.142135624 l 1,17,-1
 516.142135624 192.142135624 l 1,18,-1
 516.142135624 29.8578643763 l 1,19,-1
 112.142135624 29.8578643763 l 1,20,-1
 112.142135624 -76.8578643763 l 1,21,-1
 622.857864376 -76.8578643763 l 1,22,-1
 622.857864376 58.1421356237 l 1,23,-1
 757.857864376 58.1421356237 l 1,24,-1
 757.857864376 163.857864376 l 1,25,-1
 622.857864376 163.857864376 l 1,26,-1
 622.857864376 298.857864376 l 1,27,-1
 352.857864376 298.857864376 l 1,28,-1
 352.857864376 462.142135624 l 1,29,-1
 757.857864376 462.142135624 l 1,30,-1
 757.857864376 567.857864376 l 1,31,-1
 247.142135624 567.857864376 l 1,32,-1
 247.142135624 433.857864376 l 1,33,-1
 112.142135624 433.857864376 l 1,34,-1
 112.142135624 327.142135624 l 1,35,-1
 247.142135624 327.142135624 l 1,16,-1
218.857864376 298.857864376 m 1,36,-1
 83.8578643763 298.857864376 l 1,37,-1
 83.8578643763 462.142135624 l 1,38,-1
 218.857864376 462.142135624 l 1,39,-1
 218.857864376 596.142135624 l 1,40,-1
 786.142135624 596.142135624 l 1,41,-1
 786.142135624 433.857864376 l 1,42,-1
 381.142135624 433.857864376 l 1,43,-1
 381.142135624 327.142135624 l 1,44,-1
 651.142135624 327.142135624 l 1,45,-1
 651.142135624 192.142135624 l 1,46,-1
 786.142135624 192.142135624 l 1,47,-1
 786.142135624 29.8578643763 l 1,48,-1
 651.142135624 29.8578643763 l 1,49,-1
 651.142135624 -105.142135624 l 1,50,-1
 83.8578643763 -105.142135624 l 1,51,-1
 83.8578643763 58.1421356237 l 1,52,-1
 487.857864376 58.1421356237 l 1,53,-1
 487.857864376 163.857864376 l 1,54,-1
 218.857864376 163.857864376 l 1,55,-1
 218.857864376 298.857864376 l 1,36,-1
EndSplineSet
Validated: 525321
EndChar

StartChar: T
Encoding: 84 84 35
AltUni2: 000074.ffffffff.0
Width: 870
GlyphClass: 2
Flags: W
LayerCount: 2
Fore
SplineSet
67.0050506339 349.005050634 m 1,0,-1
 67.0050506339 680.994949366 l 1,1,-1
 802.994949366 680.994949366 l 1,2,-1
 802.994949366 349.005050634 l 1,3,-1
 668.994949366 349.005050634 l 1,4,-1
 668.994949366 -189.994949366 l 1,5,-1
 201.005050634 -189.994949366 l 1,6,-1
 201.005050634 349.005050634 l 1,7,-1
 67.0050506339 349.005050634 l 1,0,-1
180.142135624 567.857864376 m 1,8,-1
 180.142135624 462.142135624 l 1,9,-1
 314.142135624 462.142135624 l 1,10,-1
 314.142135624 -76.8578643763 l 1,11,-1
 555.857864376 -76.8578643763 l 1,12,-1
 555.857864376 462.142135624 l 1,13,-1
 689.857864376 462.142135624 l 1,14,-1
 689.857864376 567.857864376 l 1,15,-1
 180.142135624 567.857864376 l 1,8,-1
151.857864376 596.142135624 m 1,16,-1
 718.142135624 596.142135624 l 1,17,-1
 718.142135624 433.857864376 l 1,18,-1
 584.142135624 433.857864376 l 1,19,-1
 584.142135624 -105.142135624 l 1,20,-1
 285.857864376 -105.142135624 l 1,21,-1
 285.857864376 433.857864376 l 1,22,-1
 151.857864376 433.857864376 l 1,23,-1
 151.857864376 596.142135624 l 1,16,-1
471.005050634 483.005050634 m 1,24,-1
 398.994949366 483.005050634 l 1,25,-1
 398.994949366 7.99494936612 l 1,26,-1
 471.005050634 7.99494936612 l 1,27,-1
 471.005050634 483.005050634 l 1,24,-1
EndSplineSet
Validated: 526345
EndChar

StartChar: U
Encoding: 85 85 36
AltUni2: 000075.ffffffff.0
Width: 870
GlyphClass: 2
Flags: W
LayerCount: 2
Fore
SplineSet
-0.994949366117 -54.9949493661 m 1,0,-1
 -0.994949366117 680.994949366 l 1,1,-1
 870.994949366 680.994949366 l 1,2,-1
 870.994949366 -54.9949493661 l 1,3,-1
 735.994949366 -54.9949493661 l 1,4,-1
 735.994949366 -189.994949366 l 1,5,-1
 134.005050634 -189.994949366 l 1,6,-1
 134.005050634 -54.9949493661 l 1,7,-1
 -0.994949366117 -54.9949493661 l 1,0,-1
112.142135624 567.857864376 m 1,8,-1
 112.142135624 58.1421356237 l 1,9,-1
 247.142135624 58.1421356237 l 1,10,-1
 247.142135624 -76.8578643763 l 1,11,-1
 622.857864376 -76.8578643763 l 1,12,-1
 622.857864376 58.1421356237 l 1,13,-1
 757.857864376 58.1421356237 l 1,14,-1
 757.857864376 567.857864376 l 1,15,-1
 516.142135624 567.857864376 l 1,16,-1
 516.142135624 29.8578643763 l 1,17,-1
 352.857864376 29.8578643763 l 1,18,-1
 352.857864376 567.857864376 l 1,19,-1
 112.142135624 567.857864376 l 1,8,-1
83.8578643763 596.142135624 m 1,20,-1
 381.142135624 596.142135624 l 1,21,-1
 381.142135624 58.1421356237 l 1,22,-1
 487.857864376 58.1421356237 l 1,23,-1
 487.857864376 596.142135624 l 1,24,-1
 786.142135624 596.142135624 l 1,25,-1
 786.142135624 29.8578643763 l 1,26,-1
 651.142135624 29.8578643763 l 1,27,-1
 651.142135624 -105.142135624 l 1,28,-1
 218.857864376 -105.142135624 l 1,29,-1
 218.857864376 29.8578643763 l 1,30,-1
 83.8578643763 29.8578643763 l 1,31,-1
 83.8578643763 596.142135624 l 1,20,-1
268.005050634 483.005050634 m 1,32,-1
 196.994949366 483.005050634 l 1,33,-1
 196.994949366 142.994949366 l 1,34,-1
 268.005050634 142.994949366 l 1,35,-1
 268.005050634 483.005050634 l 1,32,-1
600.994949366 483.005050634 m 1,36,-1
 600.994949366 142.994949366 l 1,37,-1
 673.005050634 142.994949366 l 1,38,-1
 673.005050634 483.005050634 l 1,39,-1
 600.994949366 483.005050634 l 1,36,-1
EndSplineSet
Validated: 527369
EndChar

StartChar: V
Encoding: 86 86 37
AltUni2: 000076.ffffffff.0
Width: 870
GlyphClass: 2
Flags: W
LayerCount: 2
Fore
SplineSet
-0.994949366117 79.0050506339 m 1,0,-1
 -0.994949366117 680.994949366 l 1,1,-1
 870.994949366 680.994949366 l 1,2,-1
 870.994949366 79.0050506339 l 1,3,-1
 735.994949366 79.0050506339 l 1,4,-1
 735.994949366 -54.9949493661 l 1,5,-1
 600.994949366 -54.9949493661 l 1,6,-1
 600.994949366 -189.994949366 l 1,7,-1
 268.005050634 -189.994949366 l 1,8,-1
 268.005050634 -54.9949493661 l 1,9,-1
 134.005050634 -54.9949493661 l 1,10,-1
 134.005050634 79.0050506339 l 1,11,-1
 -0.994949366117 79.0050506339 l 1,0,-1
112.142135624 567.857864376 m 1,12,-1
 112.142135624 192.142135624 l 1,13,-1
 247.142135624 192.142135624 l 1,14,-1
 247.142135624 58.1421356237 l 1,15,-1
 381.142135624 58.1421356237 l 1,16,-1
 381.142135624 -76.8578643763 l 1,17,-1
 487.857864376 -76.8578643763 l 1,18,-1
 487.857864376 58.1421356237 l 1,19,-1
 622.857864376 58.1421356237 l 1,20,-1
 622.857864376 192.142135624 l 1,21,-1
 757.857864376 192.142135624 l 1,22,-1
 757.857864376 567.857864376 l 1,23,-1
 516.142135624 567.857864376 l 1,24,-1
 516.142135624 163.857864376 l 1,25,-1
 352.857864376 163.857864376 l 1,26,-1
 352.857864376 567.857864376 l 1,27,-1
 112.142135624 567.857864376 l 1,12,-1
83.8578643763 596.142135624 m 1,28,-1
 381.142135624 596.142135624 l 1,29,-1
 381.142135624 192.142135624 l 1,30,-1
 487.857864376 192.142135624 l 1,31,-1
 487.857864376 596.142135624 l 1,32,-1
 786.142135624 596.142135624 l 1,33,-1
 786.142135624 163.857864376 l 1,34,-1
 651.142135624 163.857864376 l 1,35,-1
 651.142135624 29.8578643763 l 1,36,-1
 516.142135624 29.8578643763 l 1,37,-1
 516.142135624 -105.142135624 l 1,38,-1
 352.857864376 -105.142135624 l 1,39,-1
 352.857864376 29.8578643763 l 1,40,-1
 218.857864376 29.8578643763 l 1,41,-1
 218.857864376 163.857864376 l 1,42,-1
 83.8578643763 163.857864376 l 1,43,-1
 83.8578643763 596.142135624 l 1,28,-1
268.005050634 483.005050634 m 1,44,-1
 196.994949366 483.005050634 l 1,45,-1
 196.994949366 276.994949366 l 1,46,-1
 268.005050634 276.994949366 l 1,47,-1
 268.005050634 483.005050634 l 1,44,-1
600.994949366 483.005050634 m 1,48,-1
 600.994949366 276.994949366 l 1,49,-1
 673.005050634 276.994949366 l 1,50,-1
 673.005050634 483.005050634 l 1,51,-1
 600.994949366 483.005050634 l 1,48,-1
EndSplineSet
Validated: 527369
EndChar

StartChar: W
Encoding: 87 87 38
AltUni2: 000077.ffffffff.0
Width: 870
GlyphClass: 2
Flags: W
LayerCount: 2
Fore
SplineSet
-0.994949366117 -189.994949366 m 1,0,-1
 -0.994949366117 680.994949366 l 1,1,-1
 870.994949366 680.994949366 l 1,2,-1
 870.994949366 -189.994949366 l 1,3,-1
 -0.994949366117 -189.994949366 l 1,0,-1
112.142135624 567.857864376 m 1,4,-1
 112.142135624 -76.8578643763 l 1,5,-1
 352.857864376 -76.8578643763 l 1,6,-1
 352.857864376 58.1421356237 l 1,7,-1
 516.142135624 58.1421356237 l 1,8,-1
 516.142135624 -76.8578643763 l 1,9,-1
 757.857864376 -76.8578643763 l 1,10,-1
 757.857864376 567.857864376 l 1,11,-1
 516.142135624 567.857864376 l 1,12,-1
 516.142135624 298.857864376 l 1,13,-1
 352.857864376 298.857864376 l 1,14,-1
 352.857864376 567.857864376 l 1,15,-1
 112.142135624 567.857864376 l 1,4,-1
83.8578643763 596.142135624 m 1,16,-1
 381.142135624 596.142135624 l 1,17,-1
 381.142135624 327.142135624 l 1,18,-1
 487.857864376 327.142135624 l 1,19,-1
 487.857864376 596.142135624 l 1,20,-1
 786.142135624 596.142135624 l 1,21,-1
 786.142135624 -105.142135624 l 1,22,-1
 487.857864376 -105.142135624 l 1,23,-1
 487.857864376 29.8578643763 l 1,24,-1
 381.142135624 29.8578643763 l 1,25,-1
 381.142135624 -105.142135624 l 1,26,-1
 83.8578643763 -105.142135624 l 1,27,-1
 83.8578643763 596.142135624 l 1,16,-1
268.005050634 483.005050634 m 1,28,-1
 196.994949366 483.005050634 l 1,29,-1
 196.994949366 7.99494936612 l 1,30,-1
 268.005050634 7.99494936612 l 1,31,-1
 268.005050634 142.994949366 l 1,32,-1
 600.994949366 142.994949366 l 1,33,-1
 600.994949366 7.99494936612 l 1,34,-1
 673.005050634 7.99494936612 l 1,35,-1
 673.005050634 483.005050634 l 1,36,-1
 600.994949366 483.005050634 l 1,37,-1
 600.994949366 214.005050634 l 1,38,-1
 268.005050634 214.005050634 l 1,39,-1
 268.005050634 483.005050634 l 1,28,-1
EndSplineSet
Validated: 527369
EndChar

StartChar: X
Encoding: 88 88 39
AltUni2: 000078.ffffffff.0
Width: 870
GlyphClass: 2
Flags: W
LayerCount: 2
Fore
SplineSet
-0.994949366117 354.005050634 m 1,0,-1
 -0.994949366117 686.994949366 l 1,1,-1
 870.994949366 686.994949366 l 1,2,-1
 870.994949366 354.005050634 l 1,3,-1
 735.994949366 354.005050634 l 1,4,-1
 735.994949366 147.994949366 l 1,5,-1
 870.994949366 147.994949366 l 1,6,-1
 870.994949366 -184.994949366 l 1,7,-1
 -0.994949366117 -184.994949366 l 1,8,-1
 -0.994949366117 147.994949366 l 1,9,-1
 134.005050634 147.994949366 l 1,10,-1
 134.005050634 354.005050634 l 1,11,-1
 -0.994949366117 354.005050634 l 1,0,-1
112.142135624 573.857864376 m 1,12,-1
 112.142135624 467.142135624 l 1,13,-1
 247.142135624 467.142135624 l 1,14,-1
 247.142135624 332.142135624 l 1,15,-1
 381.142135624 332.142135624 l 1,16,-1
 381.142135624 168.857864376 l 1,17,-1
 247.142135624 168.857864376 l 1,18,-1
 247.142135624 34.8578643763 l 1,19,-1
 112.142135624 34.8578643763 l 1,20,-1
 112.142135624 -71.8578643763 l 1,21,-1
 352.857864376 -71.8578643763 l 1,22,-1
 352.857864376 63.1421356237 l 1,23,-1
 516.142135624 63.1421356237 l 1,24,-1
 516.142135624 -71.8578643763 l 1,25,-1
 757.857864376 -71.8578643763 l 1,26,-1
 757.857864376 34.8578643763 l 1,27,-1
 622.857864376 34.8578643763 l 1,28,-1
 622.857864376 168.857864376 l 1,29,-1
 487.857864376 168.857864376 l 1,30,-1
 487.857864376 332.142135624 l 1,31,-1
 622.857864376 332.142135624 l 1,32,-1
 622.857864376 467.142135624 l 1,33,-1
 757.857864376 467.142135624 l 1,34,-1
 757.857864376 573.857864376 l 1,35,-1
 516.142135624 573.857864376 l 1,36,-1
 516.142135624 438.857864376 l 1,37,-1
 352.857864376 438.857864376 l 1,38,-1
 352.857864376 573.857864376 l 1,39,-1
 112.142135624 573.857864376 l 1,12,-1
83.8578643763 602.142135624 m 1,40,-1
 381.142135624 602.142135624 l 1,41,-1
 381.142135624 467.142135624 l 1,42,-1
 487.857864376 467.142135624 l 1,43,-1
 487.857864376 602.142135624 l 1,44,-1
 786.142135624 602.142135624 l 1,45,-1
 786.142135624 438.857864376 l 1,46,-1
 651.142135624 438.857864376 l 1,47,-1
 651.142135624 303.857864376 l 1,48,-1
 516.142135624 303.857864376 l 1,49,-1
 516.142135624 197.142135624 l 1,50,-1
 651.142135624 197.142135624 l 1,51,-1
 651.142135624 63.1421356237 l 1,52,-1
 786.142135624 63.1421356237 l 1,53,-1
 786.142135624 -100.142135624 l 1,54,-1
 487.857864376 -100.142135624 l 1,55,-1
 487.857864376 34.8578643763 l 1,56,-1
 381.142135624 34.8578643763 l 1,57,-1
 381.142135624 -100.142135624 l 1,58,-1
 83.8578643763 -100.142135624 l 1,59,-1
 83.8578643763 63.1421356237 l 1,60,-1
 218.857864376 63.1421356237 l 1,61,-1
 218.857864376 197.142135624 l 1,62,-1
 352.857864376 197.142135624 l 1,63,-1
 352.857864376 303.857864376 l 1,64,-1
 218.857864376 303.857864376 l 1,65,-1
 218.857864376 438.857864376 l 1,66,-1
 83.8578643763 438.857864376 l 1,67,-1
 83.8578643763 602.142135624 l 1,40,-1
EndSplineSet
Validated: 525321
EndChar

StartChar: Y
Encoding: 89 89 40
AltUni2: 000079.ffffffff.0
Width: 870
GlyphClass: 2
Flags: W
LayerCount: 2
Fore
SplineSet
-0.994949366117 219.005050634 m 1,0,-1
 -0.994949366117 686.994949366 l 1,1,-1
 870.994949366 686.994949366 l 1,2,-1
 870.994949366 -49.9949493661 l 1,3,-1
 735.994949366 -49.9949493661 l 1,4,-1
 735.994949366 -184.994949366 l 1,5,-1
 -0.994949366117 -184.994949366 l 1,6,-1
 -0.994949366117 147.994949366 l 1,7,-1
 134.005050634 147.994949366 l 1,8,-1
 134.005050634 219.005050634 l 1,9,-1
 -0.994949366117 219.005050634 l 1,0,-1
112.142135624 573.857864376 m 1,10,-1
 112.142135624 332.142135624 l 1,11,-1
 247.142135624 332.142135624 l 1,12,-1
 247.142135624 197.142135624 l 1,13,-1
 516.142135624 197.142135624 l 1,14,-1
 516.142135624 34.8578643763 l 1,15,-1
 112.142135624 34.8578643763 l 1,16,-1
 112.142135624 -71.8578643763 l 1,17,-1
 622.857864376 -71.8578643763 l 1,18,-1
 622.857864376 63.1421356237 l 1,19,-1
 757.857864376 63.1421356237 l 1,20,-1
 757.857864376 573.857864376 l 1,21,-1
 516.142135624 573.857864376 l 1,22,-1
 516.142135624 303.857864376 l 1,23,-1
 352.857864376 303.857864376 l 1,24,-1
 352.857864376 573.857864376 l 1,25,-1
 112.142135624 573.857864376 l 1,10,-1
83.8578643763 602.142135624 m 1,26,-1
 381.142135624 602.142135624 l 1,27,-1
 381.142135624 332.142135624 l 1,28,-1
 487.857864376 332.142135624 l 1,29,-1
 487.857864376 602.142135624 l 1,30,-1
 786.142135624 602.142135624 l 1,31,-1
 786.142135624 34.8578643763 l 1,32,-1
 651.142135624 34.8578643763 l 1,33,-1
 651.142135624 -100.142135624 l 1,34,-1
 83.8578643763 -100.142135624 l 1,35,-1
 83.8578643763 63.1421356237 l 1,36,-1
 487.857864376 63.1421356237 l 1,37,-1
 487.857864376 168.857864376 l 1,38,-1
 218.857864376 168.857864376 l 1,39,-1
 218.857864376 303.857864376 l 1,40,-1
 83.8578643763 303.857864376 l 1,41,-1
 83.8578643763 602.142135624 l 1,26,-1
268.005050634 489.005050634 m 1,42,-1
 196.994949366 489.005050634 l 1,43,-1
 196.994949366 416.994949366 l 1,44,-1
 268.005050634 416.994949366 l 1,45,-1
 268.005050634 489.005050634 l 1,42,-1
600.994949366 489.005050634 m 1,46,-1
 600.994949366 147.994949366 l 1,47,-1
 673.005050634 147.994949366 l 1,48,-1
 673.005050634 489.005050634 l 1,49,-1
 600.994949366 489.005050634 l 1,46,-1
EndSplineSet
Validated: 527369
EndChar

StartChar: Z
Encoding: 90 90 41
AltUni2: 00007a.ffffffff.0
Width: 870
GlyphClass: 2
Flags: W
LayerCount: 2
Fore
SplineSet
-0.994949366117 349.005050634 m 1,0,-1
 -0.994949366117 680.994949366 l 1,1,-1
 870.994949366 680.994949366 l 1,2,-1
 870.994949366 214.005050634 l 1,3,-1
 735.994949366 214.005050634 l 1,4,-1
 735.994949366 142.994949366 l 1,5,-1
 870.994949366 142.994949366 l 1,6,-1
 870.994949366 -189.994949366 l 1,7,-1
 -0.994949366117 -189.994949366 l 1,8,-1
 -0.994949366117 142.994949366 l 1,9,-1
 134.005050634 142.994949366 l 1,10,-1
 134.005050634 276.994949366 l 1,11,-1
 268.005050634 276.994949366 l 1,12,-1
 268.005050634 349.005050634 l 1,13,-1
 -0.994949366117 349.005050634 l 1,0,-1
112.142135624 567.857864376 m 1,14,-1
 112.142135624 462.142135624 l 1,15,-1
 516.142135624 462.142135624 l 1,16,-1
 516.142135624 298.857864376 l 1,17,-1
 381.142135624 298.857864376 l 1,18,-1
 381.142135624 163.857864376 l 1,19,-1
 247.142135624 163.857864376 l 1,20,-1
 247.142135624 29.8578643763 l 1,21,-1
 112.142135624 29.8578643763 l 1,22,-1
 112.142135624 -76.8578643763 l 1,23,-1
 757.857864376 -76.8578643763 l 1,24,-1
 757.857864376 29.8578643763 l 1,25,-1
 487.857864376 29.8578643763 l 1,26,-1
 487.857864376 192.142135624 l 1,27,-1
 622.857864376 192.142135624 l 1,28,-1
 622.857864376 327.142135624 l 1,29,-1
 757.857864376 327.142135624 l 1,30,-1
 757.857864376 567.857864376 l 1,31,-1
 112.142135624 567.857864376 l 1,14,-1
83.8578643763 596.142135624 m 1,32,-1
 786.142135624 596.142135624 l 1,33,-1
 786.142135624 298.857864376 l 1,34,-1
 651.142135624 298.857864376 l 1,35,-1
 651.142135624 163.857864376 l 1,36,-1
 516.142135624 163.857864376 l 1,37,-1
 516.142135624 58.1421356237 l 1,38,-1
 786.142135624 58.1421356237 l 1,39,-1
 786.142135624 -105.142135624 l 1,40,-1
 83.8578643763 -105.142135624 l 1,41,-1
 83.8578643763 58.1421356237 l 1,42,-1
 218.857864376 58.1421356237 l 1,43,-1
 218.857864376 192.142135624 l 1,44,-1
 352.857864376 192.142135624 l 1,45,-1
 352.857864376 327.142135624 l 1,46,-1
 487.857864376 327.142135624 l 1,47,-1
 487.857864376 433.857864376 l 1,48,-1
 83.8578643763 433.857864376 l 1,49,-1
 83.8578643763 596.142135624 l 1,32,-1
673.005050634 483.005050634 m 1,50,-1
 600.994949366 483.005050634 l 1,51,-1
 600.994949366 411.994949366 l 1,52,-1
 673.005050634 411.994949366 l 1,53,-1
 673.005050634 483.005050634 l 1,50,-1
403.005050634 7.99494936612 m 1,54,-1
 403.005050634 79.0050506339 l 1,55,-1
 331.994949366 79.0050506339 l 1,56,-1
 331.994949366 7.99494936612 l 1,57,-1
 403.005050634 7.99494936612 l 1,54,-1
EndSplineSet
Validated: 527369
EndChar

StartChar: underscore
Encoding: 95 95 42
Width: 870
GlyphClass: 2
Flags: W
LayerCount: 2
Fore
SplineSet
2.00505063388 -189.994949366 m 1,0,-1
 2.00505063388 142.994949366 l 1,1,-1
 867.994949366 142.994949366 l 1,2,-1
 867.994949366 -189.994949366 l 1,3,-1
 2.00505063388 -189.994949366 l 1,0,-1
115.142135624 29.8578643763 m 1,4,-1
 115.142135624 -76.8578643763 l 1,5,-1
 754.857864376 -76.8578643763 l 1,6,-1
 754.857864376 29.8578643763 l 1,7,-1
 115.142135624 29.8578643763 l 1,4,-1
86.8578643763 58.1421356237 m 1,8,-1
 783.142135624 58.1421356237 l 1,9,-1
 783.142135624 -105.142135624 l 1,10,-1
 86.8578643763 -105.142135624 l 1,11,-1
 86.8578643763 58.1421356237 l 1,8,-1
EndSplineSet
Validated: 524297
EndChar

StartChar: hyphen
Encoding: 45 45 44
Width: 870
Flags: W
LayerCount: 2
Fore
SplineSet
111.505050634 81.0050506339 m 1,0,-1
 111.505050634 413.994949366 l 1,1,-1
 758.494949366 413.994949366 l 1,2,-1
 758.494949366 81.0050506339 l 1,3,-1
 111.505050634 81.0050506339 l 1,0,-1
224.642135624 300.857864376 m 1,4,-1
 224.642135624 194.142135624 l 1,5,-1
 645.357864376 194.142135624 l 1,6,-1
 645.357864376 300.857864376 l 1,7,-1
 224.642135624 300.857864376 l 1,4,-1
196.357864376 329.142135624 m 1,8,-1
 673.642135624 329.142135624 l 1,9,-1
 673.642135624 165.857864376 l 1,10,-1
 196.357864376 165.857864376 l 1,11,-1
 196.357864376 329.142135624 l 1,8,-1
EndSplineSet
Validated: 524297
EndChar
